<svg id="svg" version="1.1" xmlns="http://www.w3.org/2000/svg" xmlns:xlink="http://www.w3.org/1999/xlink" width="400" height="382" viewBox="0, 0, 400,382"><g id="svgg"><path id="path0" d="M223.114 39.467 C 223.114 39.741,223.629 40.778,224.260 41.772 C 224.890 42.766,225.406 43.735,225.406 43.924 C 225.406 44.113,227.295 46.772,229.603 49.832 C 231.911 52.893,233.719 55.396,233.620 55.396 C 233.521 55.396,232.213 54.448,230.712 53.289 C 218.839 44.115,195.557 36.774,187.749 39.742 C 185.934 40.432,188.829 42.670,194.938 45.299 C 198.808 46.964,198.935 47.128,195.795 46.405 C 173.129 41.190,141.571 45.009,119.771 55.606 C 102.362 64.068,90.815 75.699,81.483 94.174 C 74.221 108.551,75.335 113.163,84.247 105.613 L 86.546 103.665 83.164 110.312 C 76.170 124.057,70.126 141.598,67.979 154.385 C 65.784 167.462,78.078 196.269,92.950 212.894 C 96.529 216.895,96.225 216.845,97.598 213.658 C 100.666 206.538,108.082 197.517,110.868 197.517 C 115.095 197.517,121.121 199.214,126.165 201.824 C 131.206 204.433,130.874 203.772,131.388 212.225 C 132.147 224.722,133.075 235.541,134.499 248.520 C 134.706 250.411,135.037 253.763,135.233 255.969 C 135.580 259.868,137.537 274.904,138.284 279.408 C 138.744 282.184,139.596 283.227,149.570 293.214 C 165.852 309.518,182.773 321.617,204.202 332.276 C 219.827 340.048,233.727 341.856,248.711 338.066 C 256.178 336.177,257.552 335.409,260.480 331.488 C 278.494 307.360,288.739 281.689,291.709 253.237 C 292.553 245.148,292.546 245.106,289.797 242.896 C 287.162 240.777,287.124 240.802,286.748 244.890 C 285.763 255.630,282.455 268.672,278.314 278.140 C 275.858 283.754,275.837 283.742,275.827 276.772 C 275.811 264.557,272.531 256.743,265.734 252.726 C 262.683 250.923,261.119 251.050,257.612 253.384 C 251.931 257.165,248.740 256.418,238.586 248.933 C 236.864 247.664,230.374 246.297,226.170 246.319 C 215.616 246.374,202.725 252.652,199.295 259.408 C 195.048 267.772,190.516 281.561,188.339 292.741 C 187.810 295.460,187.909 295.461,182.561 292.691 C 175.687 289.131,176.037 289.426,173.698 285.215 C 154.291 250.271,144.807 212.777,144.797 170.964 C 144.795 159.291,145.408 145.010,146.306 135.817 C 147.632 122.250,147.774 121.293,148.559 120.598 C 150.592 118.799,163.700 111.940,169.628 109.573 C 175.712 107.144,177.671 106.756,174.515 108.605 C 169.505 111.542,170.561 112.519,178.716 112.493 C 190.731 112.456,206.510 109.131,223.305 103.099 C 229.447 100.892,229.845 100.880,238.772 102.619 C 246.685 104.161,259.351 108.081,262.725 110.033 L 263.941 110.736 265.606 108.950 C 273.001 101.017,276.309 86.535,272.962 76.744 C 271.136 71.400,268.668 72.910,265.357 81.398 C 263.266 86.757,263.285 86.718,263.254 85.634 C 263.011 77.186,246.350 53.415,235.945 46.672 C 235.087 46.115,233.352 44.868,232.092 43.899 C 227.290 40.210,223.114 38.148,223.114 39.467 M210.124 154.600 C 199.661 156.248,192.133 160.587,187.410 167.691 C 184.098 172.673,185.038 173.658,190.852 171.296 C 201.091 167.137,208.760 165.470,217.819 165.435 L 220.356 165.425 220.971 163.889 C 222.166 160.902,221.359 157.860,218.767 155.584 C 217.346 154.336,214.127 153.970,210.124 154.600 M256.467 156.891 C 253.386 157.331,251.714 161.648,253.348 164.943 L 254.250 166.762 259.408 167.011 C 262.720 167.171,266.343 167.638,269.532 168.316 C 277.086 169.922,277.835 169.721,276.275 166.498 C 273.231 160.211,264.131 155.798,256.467 156.891 M199.427 181.497 C 194.796 182.706,189.429 185.506,186.532 188.224 L 185.482 189.210 186.437 188.921 C 186.963 188.763,187.857 188.397,188.424 188.108 C 190.094 187.259,190.201 187.474,189.159 189.589 C 186.915 194.147,188.938 202.483,192.287 202.483 C 193.548 202.483,197.073 203.388,199.912 204.440 C 209.610 208.033,214.436 190.711,205.343 184.945 C 203.404 183.715,203.485 183.381,205.724 183.381 C 209.991 183.381,214.392 184.921,217.342 187.446 L 218.993 188.859 218.201 187.307 C 215.456 181.927,207.367 179.424,199.427 181.497 M260.895 183.148 C 257.986 183.988,255.264 185.699,253.074 188.065 C 250.660 190.671,250.411 191.452,252.429 190.081 C 254.078 188.960,254.829 188.812,253.957 189.780 C 253.626 190.148,252.928 191.202,252.407 192.122 L 251.458 193.796 252.798 195.891 C 253.535 197.043,255.154 200.021,256.395 202.508 L 258.652 207.031 260.229 206.474 C 269.939 203.049,270.210 188.342,260.591 186.849 L 258.835 186.576 261.826 185.889 C 266.060 184.916,268.557 185.302,272.111 187.479 C 274.038 188.660,274.057 187.741,272.145 185.828 C 269.460 183.143,264.776 182.027,260.895 183.148 M214.415 264.394 C 224.775 266.702,233.737 266.854,244.931 264.913 C 245.805 264.762,247.471 264.968,249.493 265.479 C 253.703 266.544,258.973 266.560,263.037 265.521 C 266.843 264.547,266.564 264.488,267.077 266.380 C 268.835 272.865,269.668 282.453,269.166 290.441 L 268.885 294.922 266.933 297.500 C 264.514 300.696,256.422 309.074,255.754 309.074 C 255.484 309.074,254.703 307.590,254.018 305.776 L 252.774 302.479 250.074 302.691 C 229.468 304.308,230.995 304.076,228.617 305.954 C 225.407 308.490,225.742 308.459,219.606 306.801 C 209.605 304.100,195.818 299.290,195.131 298.263 C 194.450 297.243,195.542 284.796,196.798 279.274 C 198.063 273.712,201.358 264.647,203.130 261.857 L 203.637 261.059 207.354 262.354 C 209.399 263.067,212.577 263.985,214.415 264.394 M211.652 273.712 C 211.652 274.225,211.793 274.732,211.965 274.838 C 212.137 274.944,212.204 274.525,212.113 273.905 C 211.913 272.540,211.652 272.431,211.652 273.712 M233.142 273.060 C 234.140 273.139,235.774 273.139,236.772 273.060 C 237.770 272.981,236.953 272.917,234.957 272.917 C 232.961 272.917,232.144 272.981,233.142 273.060 M215.124 279.128 C 215.631 279.783,216.123 280.251,216.217 280.167 C 216.311 280.084,215.896 279.547,215.294 278.976 L 214.201 277.937 215.124 279.128 M248.615 280.100 C 248.037 280.311,247.564 280.749,247.564 281.072 C 247.564 281.575,247.655 281.585,248.193 281.136 C 248.539 280.847,249.270 280.410,249.817 280.165 C 251.033 279.619,250.074 279.567,248.615 280.100 M247.227 283.541 C 247.202 283.891,247.083 284.493,246.963 284.878 C 246.754 285.541,246.765 285.542,247.179 284.897 C 247.419 284.523,247.538 283.921,247.443 283.560 C 247.288 282.969,247.267 282.967,247.227 283.541 M245.951 288.069 C 245.616 289.117,245.493 289.880,245.679 289.765 C 246.049 289.536,246.938 286.544,246.705 286.310 C 246.625 286.230,246.286 287.022,245.951 288.069 " stroke="none" fill="#484c95" fill-rule="evenodd"></path><path id="path1" d="M258.262 110.842 C 238.175 114.910,206.549 121.831,190.504 125.671 C 174.115 129.593,162.751 131.847,162.751 131.177 C 162.751 130.521,171.413 126.627,176.600 124.950 C 179.091 124.145,178.249 123.936,168.959 123.055 C 163.968 122.582,157.736 121.952,155.110 121.655 C 148.245 120.879,148.841 120.718,148.270 123.496 C 148.000 124.809,147.702 127.345,147.609 129.131 C 147.516 130.917,147.343 132.636,147.224 132.951 C 147.104 133.266,146.926 135.156,146.826 137.150 C 146.727 139.143,146.495 140.868,146.312 140.981 C 146.129 141.094,145.917 143.933,145.841 147.289 C 145.765 150.645,145.596 155.540,145.465 158.166 C 145.334 160.793,145.238 167.068,145.253 172.111 C 145.288 184.011,145.325 185.406,145.622 185.866 C 145.759 186.078,145.926 188.699,145.994 191.693 C 146.062 194.686,146.213 197.135,146.330 197.135 C 146.446 197.135,146.556 197.436,146.574 197.803 C 146.592 198.171,146.739 199.847,146.900 201.528 C 147.060 203.209,147.271 205.602,147.368 206.846 C 147.464 208.089,147.785 209.348,148.079 209.643 C 148.452 210.016,148.543 210.634,148.376 211.678 C 148.219 212.656,148.306 213.381,148.626 213.767 C 148.895 214.091,149.132 215.124,149.152 216.061 C 149.172 216.998,149.317 217.765,149.475 217.765 C 149.632 217.765,149.761 218.504,149.761 219.408 C 149.761 220.311,149.915 221.214,150.102 221.414 C 150.609 221.953,152.515 229.934,152.243 230.375 C 152.114 230.584,152.161 230.755,152.349 230.755 C 152.687 230.755,153.457 233.261,153.844 235.626 C 153.956 236.309,154.200 236.867,154.388 236.867 C 154.575 236.867,154.728 237.373,154.728 237.991 C 154.728 238.609,154.900 239.221,155.110 239.351 C 155.320 239.480,155.492 239.996,155.492 240.497 C 155.492 240.997,155.664 241.513,155.874 241.643 C 156.084 241.773,156.256 242.470,156.256 243.194 C 156.256 243.917,156.428 244.508,156.638 244.508 C 156.848 244.508,157.020 245.010,157.020 245.622 C 157.020 246.235,157.187 246.794,157.391 246.864 C 157.595 246.934,157.810 247.421,157.868 247.947 C 157.927 248.472,158.069 248.988,158.184 249.093 C 158.596 249.469,160.442 254.922,160.259 255.219 C 160.156 255.386,160.233 255.580,160.431 255.650 C 160.719 255.753,162.441 259.851,162.893 261.509 C 162.950 261.719,163.617 263.181,164.375 264.756 C 165.132 266.332,166.222 268.653,166.797 269.914 C 168.386 273.400,172.393 281.485,173.756 283.956 C 176.244 288.467,176.681 288.971,179.108 290.129 C 180.390 290.742,181.368 291.358,181.281 291.498 C 181.194 291.639,181.345 291.754,181.618 291.754 C 182.331 291.754,185.673 293.422,185.673 293.778 C 185.673 294.925,187.517 293.949,187.723 292.693 C 187.848 291.932,188.108 290.621,188.301 289.780 C 188.494 288.940,188.844 287.315,189.078 286.171 C 189.311 285.026,189.647 283.994,189.824 283.878 C 190.001 283.762,190.258 282.796,190.396 281.732 C 190.644 279.824,191.802 276.074,192.297 275.580 C 192.436 275.440,192.550 275.038,192.550 274.685 C 192.550 274.332,192.845 273.458,193.206 272.743 C 193.567 272.027,193.921 271.012,193.994 270.487 C 194.066 269.962,194.287 269.369,194.484 269.169 C 194.681 268.969,194.842 268.527,194.842 268.186 C 194.842 267.845,195.358 266.501,195.989 265.200 C 196.619 263.899,197.135 262.662,197.135 262.452 C 197.135 261.525,200.339 255.899,201.210 255.298 C 201.740 254.932,202.542 254.288,202.992 253.868 C 203.442 253.448,204.156 252.920,204.579 252.696 C 205.002 252.471,206.208 251.797,207.259 251.199 C 210.264 249.487,212.091 248.640,212.308 248.857 C 212.418 248.966,212.736 248.828,213.015 248.549 C 213.620 247.944,219.296 246.332,221.222 246.217 C 223.585 246.077,224.359 245.684,224.096 244.758 C 223.035 241.024,223.658 234.563,225.410 231.128 C 226.566 228.862,226.756 229.226,226.612 233.428 L 226.480 237.249 227.902 237.249 C 228.683 237.249,231.407 237.753,233.955 238.369 C 244.612 240.945,252.018 240.839,259.554 238.002 L 261.802 237.156 261.549 234.114 C 260.460 221.061,256.639 206.858,250.836 194.296 C 249.374 191.130,249.216 190.610,249.933 191.328 C 250.622 192.016,251.079 191.879,250.667 191.108 C 249.643 189.195,258.691 181.657,260.597 182.835 C 260.886 183.013,260.954 182.955,260.781 182.676 C 260.326 181.939,266.728 181.875,267.611 182.608 C 267.866 182.819,268.176 182.891,268.300 182.766 C 268.424 182.642,268.752 182.682,269.029 182.855 C 269.306 183.027,269.769 183.204,270.060 183.248 C 270.818 183.363,273.101 185.665,273.753 186.971 C 274.803 189.075,274.467 189.432,272.282 188.534 C 271.679 188.286,271.632 188.386,271.900 189.350 C 272.604 191.876,272.251 199.104,271.297 201.697 L 270.393 204.157 271.246 204.848 L 272.100 205.540 270.871 205.540 C 268.187 205.540,262.334 207.622,260.507 209.228 C 259.939 209.727,259.976 210.056,260.961 213.196 C 262.002 216.516,263.301 222.454,263.841 226.361 C 264.049 227.869,264.458 228.674,265.781 230.181 C 269.962 234.948,269.320 241.964,264.274 246.654 C 262.453 248.347,259.286 252.192,260.594 251.122 C 261.639 250.267,265.145 250.912,266.285 252.169 C 266.390 252.285,267.294 252.959,268.294 253.668 C 270.016 254.890,272.397 257.976,272.397 258.986 C 272.397 259.245,272.596 259.330,272.844 259.177 C 273.143 258.992,273.212 259.107,273.052 259.525 C 272.920 259.869,273.019 260.370,273.273 260.638 C 273.730 261.122,274.194 262.040,275.024 264.106 C 275.260 264.694,275.454 265.844,275.454 266.662 C 275.454 267.480,275.626 268.256,275.836 268.386 C 276.059 268.524,276.220 270.721,276.224 273.662 C 276.231 279.691,276.577 280.644,277.772 277.924 C 279.521 273.945,283.116 263.254,283.196 261.796 C 283.210 261.533,283.322 261.318,283.445 261.317 C 283.567 261.316,283.676 260.617,283.687 259.763 C 283.698 258.909,283.870 258.092,284.069 257.949 C 284.269 257.806,284.455 256.836,284.483 255.793 C 284.512 254.750,284.727 253.833,284.961 253.755 C 285.209 253.673,285.387 252.681,285.387 251.376 C 285.387 250.145,285.522 249.054,285.688 248.952 C 285.854 248.849,286.031 247.202,286.082 245.290 C 286.180 241.648,286.791 240.135,287.982 240.592 C 288.480 240.783,288.520 240.241,288.287 236.452 C 287.515 223.893,286.855 217.113,286.226 215.282 C 286.009 214.651,285.729 213.131,285.602 211.904 C 285.476 210.677,285.014 208.356,284.577 206.747 C 284.139 205.137,283.529 202.789,283.221 201.528 C 282.913 200.267,282.519 198.892,282.347 198.472 C 282.174 198.052,281.824 196.934,281.569 195.989 C 281.314 195.043,280.920 194.042,280.693 193.764 C 280.225 193.190,280.295 189.915,280.789 189.316 C 281.194 188.823,283.250 180.353,283.899 176.504 C 284.447 173.253,284.432 160.350,283.875 157.020 C 283.682 155.864,283.326 153.673,283.084 152.150 C 282.842 150.628,282.487 149.285,282.296 149.167 C 282.105 149.049,281.948 148.512,281.948 147.974 C 281.948 146.724,280.267 141.396,279.230 139.356 C 279.044 138.991,278.892 138.492,278.892 138.246 C 278.892 137.362,272.702 124.757,271.704 123.608 C 271.331 123.179,270.775 122.311,270.470 121.681 C 270.164 121.051,269.435 119.847,268.850 119.007 C 268.264 118.166,267.319 116.809,266.748 115.991 C 266.178 115.173,265.540 114.219,265.330 113.871 C 264.593 112.652,262.397 110.029,262.146 110.068 C 262.006 110.089,260.258 110.438,258.262 110.842 M217.001 153.952 C 217.001 154.155,217.241 154.230,217.535 154.117 C 219.201 153.478,221.968 158.194,221.968 161.673 C 221.968 165.476,221.656 165.728,216.709 165.915 C 212.331 166.081,205.247 167.192,200.599 168.441 C 199.038 168.861,197.619 169.118,197.447 169.012 C 197.275 168.905,197.135 168.977,197.135 169.171 C 197.135 169.497,193.994 170.922,193.123 170.992 C 192.913 171.009,191.771 171.494,190.585 172.070 C 182.385 176.052,184.146 167.639,192.933 160.850 C 193.878 160.120,194.737 159.421,194.842 159.296 C 195.093 158.998,198.437 157.402,198.811 157.402 C 198.970 157.402,199.350 157.152,199.656 156.845 C 199.963 156.539,200.466 156.385,200.775 156.504 C 201.084 156.623,201.337 156.511,201.337 156.256 C 201.337 155.994,201.595 155.891,201.930 156.020 C 202.256 156.145,202.428 156.094,202.313 155.907 C 202.064 155.504,205.720 154.558,206.253 154.887 C 206.455 155.012,206.682 154.930,206.757 154.705 C 206.832 154.480,208.157 154.229,209.700 154.148 C 211.244 154.067,212.601 153.906,212.717 153.791 C 213.086 153.421,217.001 153.568,217.001 153.952 M264.848 156.958 C 265.092 157.202,265.672 157.402,266.138 157.402 C 269.949 157.402,280.287 167.825,277.423 168.780 C 277.178 168.862,277.062 169.066,277.166 169.235 C 277.785 170.236,276.178 170.383,272.918 169.624 C 271.056 169.190,268.361 168.673,266.929 168.474 C 265.497 168.276,264.136 167.997,263.904 167.854 C 263.673 167.711,261.575 167.632,259.244 167.678 C 256.912 167.725,254.685 167.640,254.294 167.490 C 252.979 166.985,251.202 161.999,252.132 161.424 C 252.333 161.300,252.406 160.959,252.294 160.667 C 252.024 159.963,252.697 158.761,254.127 157.395 L 255.293 156.280 259.848 156.398 C 262.647 156.470,264.575 156.686,264.848 156.958 M214.433 176.491 C 216.579 177.166,217.728 178.197,216.113 177.997 C 215.866 177.967,214.288 177.976,212.607 178.018 L 209.551 178.093 211.949 178.614 C 215.388 179.361,219.911 181.420,222.900 183.599 L 225.483 185.482 225.276 189.303 C 224.955 195.215,223.132 200.181,219.778 204.282 L 218.463 205.890 216.968 204.946 C 216.146 204.427,215.473 204.175,215.473 204.386 C 215.473 205.087,212.253 208.010,210.626 208.787 L 209.027 209.551 209.833 210.411 C 210.998 211.653,210.460 211.524,203.753 208.952 C 198.694 207.012,189.518 204.119,185.151 203.087 C 183.869 202.784,184.028 202.490,185.658 202.152 L 186.827 201.910 186.108 200.569 C 184.368 197.326,183.977 195.152,184.713 192.812 C 185.083 191.635,185.280 190.398,185.152 190.063 C 184.835 189.238,185.858 187.768,187.419 186.803 C 188.339 186.235,188.775 185.632,188.953 184.682 C 189.234 183.183,190.887 182.047,192.373 182.331 C 193.011 182.453,193.188 182.351,193.035 181.952 C 192.883 181.557,192.471 181.472,191.542 181.647 C 186.657 182.563,196.159 177.171,201.562 175.961 C 205.128 175.162,210.976 175.403,214.433 176.491 M264.565 179.274 C 265.938 180.004,265.906 180.020,260.833 181.102 C 258.779 181.540,255.698 182.318,253.984 182.831 C 249.852 184.067,249.256 184.070,250.057 182.847 C 252.413 179.252,260.690 177.214,264.565 179.274 M204.107 180.221 C 204.895 180.303,206.184 180.303,206.972 180.221 C 207.760 180.139,207.116 180.071,205.540 180.071 C 203.964 180.071,203.319 180.139,204.107 180.221 M215.041 180.837 C 215.275 181.119,215.369 181.448,215.250 181.567 C 215.131 181.686,215.392 181.897,215.832 182.037 C 216.273 182.177,216.516 182.475,216.374 182.704 C 216.214 182.963,216.299 183.006,216.603 182.818 C 216.884 182.644,217.226 182.739,217.420 183.046 C 217.684 183.462,217.755 183.432,217.759 182.904 C 217.762 182.536,217.511 182.235,217.201 182.235 C 216.890 182.235,216.355 181.805,216.011 181.280 C 215.667 180.755,215.212 180.325,215.000 180.325 C 214.762 180.325,214.777 180.520,215.041 180.837 M220.630 185.673 C 220.496 185.890,220.200 185.953,219.972 185.812 C 219.705 185.647,219.669 185.736,219.870 186.061 C 220.090 186.418,220.013 186.502,219.608 186.347 C 219.292 186.225,218.791 186.279,218.494 186.467 C 218.198 186.654,218.128 186.824,218.338 186.843 C 218.548 186.862,219.021 186.936,219.389 187.006 C 219.756 187.076,220.057 186.967,220.057 186.763 C 220.057 186.559,220.256 186.515,220.498 186.665 C 220.761 186.827,220.836 186.770,220.685 186.525 C 220.545 186.299,220.733 186.053,221.103 185.980 C 221.565 185.888,221.635 185.757,221.325 185.563 C 221.077 185.407,220.764 185.456,220.630 185.673 M219.333 190.224 C 218.870 190.625,218.629 191.037,218.797 191.139 C 218.965 191.242,219.411 190.913,219.789 190.410 C 220.617 189.305,220.464 189.242,219.333 190.224 M220.821 195.161 C 220.821 196.036,220.957 196.753,221.122 196.753 C 221.482 196.753,221.443 194.190,221.077 193.825 C 220.937 193.684,220.821 194.285,220.821 195.161 M110.446 198.315 C 109.278 198.782,106.829 200.951,104.915 203.212 C 104.098 204.177,103.269 204.919,103.072 204.862 C 102.874 204.804,102.813 204.918,102.935 205.116 C 103.057 205.313,102.750 205.962,102.253 206.558 C 101.756 207.154,101.063 208.200,100.713 208.883 C 100.362 209.565,99.898 210.124,99.681 210.124 C 99.464 210.124,99.365 210.253,99.460 210.411 C 99.556 210.568,99.139 211.729,98.533 212.989 C 97.927 214.250,97.429 215.649,97.426 216.098 C 97.423 216.546,97.164 217.406,96.850 218.008 C 96.537 218.610,96.279 219.369,96.277 219.694 C 96.276 220.020,96.129 220.450,95.952 220.649 C 94.379 222.413,95.038 231.901,96.733 231.901 C 96.901 231.901,97.039 232.146,97.039 232.447 C 97.039 232.747,97.641 233.630,98.376 234.410 C 99.112 235.190,99.713 235.962,99.713 236.125 C 99.713 236.707,104.384 241.658,107.725 244.618 C 110.566 247.134,115.151 250.207,118.816 252.050 C 119.551 252.419,120.239 252.819,120.344 252.937 C 120.860 253.517,125.028 254.886,125.723 254.705 C 126.271 254.561,126.458 254.650,126.327 254.991 C 125.898 256.110,131.219 256.782,133.690 255.921 C 134.696 255.570,134.882 255.340,134.693 254.679 C 134.565 254.233,134.357 253.072,134.231 252.099 L 134.002 250.329 130.707 249.470 C 116.557 245.783,97.956 232.792,98.811 227.193 C 99.954 219.701,104.922 209.803,109.922 205.058 L 111.033 204.004 113.118 204.721 C 117.940 206.380,124.533 210.461,128.358 214.154 L 130.850 216.560 130.798 212.749 C 130.769 210.652,130.640 208.831,130.511 208.703 C 130.382 208.574,130.277 207.738,130.277 206.845 C 130.277 205.146,128.220 202.865,126.688 202.865 C 126.351 202.865,126.074 202.703,126.074 202.504 C 126.074 202.305,125.043 201.766,123.782 201.306 C 122.521 200.847,121.490 200.312,121.490 200.117 C 121.490 199.923,121.351 199.850,121.180 199.955 C 120.777 200.205,117.670 199.416,117.670 199.064 C 117.670 198.915,116.681 198.755,115.473 198.707 C 114.265 198.659,113.219 198.458,113.149 198.259 C 112.989 197.806,111.651 197.833,110.446 198.315 M221.031 198.376 C 221.178 198.764,221.107 199.045,220.862 199.045 C 220.630 199.045,220.439 199.217,220.439 199.427 C 220.439 200.046,221.101 199.864,221.366 199.172 C 221.501 198.822,221.423 198.349,221.193 198.121 C 220.893 197.823,220.847 197.894,221.031 198.376 M130.650 223.591 C 127.814 228.216,127.169 236.183,129.235 241.074 C 130.296 243.587,133.583 248.206,134.008 247.782 C 134.134 247.655,134.034 247.348,133.785 247.100 C 133.496 246.810,133.333 245.233,133.333 242.713 C 133.333 240.344,133.181 238.777,132.951 238.777 C 132.724 238.777,132.569 237.321,132.569 235.173 C 132.569 233.190,132.412 231.155,132.220 230.649 C 132.027 230.143,131.814 228.069,131.746 226.040 C 131.604 221.830,131.657 221.949,130.650 223.591 M264.853 234.384 C 264.857 235.224,264.935 235.523,265.027 235.048 C 265.118 234.573,265.115 233.885,265.019 233.520 C 264.923 233.155,264.849 233.543,264.853 234.384 M202.283 265.161 C 201.495 267.040,200.702 268.577,200.521 268.577 C 200.339 268.577,200.191 269.072,200.191 269.676 C 200.191 270.281,199.943 270.981,199.641 271.232 C 199.338 271.484,199.171 271.901,199.271 272.159 C 199.370 272.417,199.159 273.307,198.803 274.137 C 198.447 274.966,198.119 275.903,198.075 276.218 C 198.030 276.533,197.813 277.564,197.591 278.510 C 196.471 283.294,195.860 288.302,195.830 292.944 L 195.798 298.019 199.236 299.375 C 201.127 300.121,203.276 301.011,204.011 301.354 C 205.514 302.054,205.611 302.082,206.708 302.149 C 207.141 302.175,207.400 302.350,207.284 302.537 C 207.169 302.725,207.631 302.967,208.313 303.076 C 208.994 303.185,213.036 304.252,217.296 305.448 C 221.555 306.643,225.252 307.515,225.510 307.385 C 225.768 307.256,226.667 306.632,227.507 305.999 C 228.348 305.366,229.379 304.609,229.799 304.317 C 230.600 303.760,239.280 302.785,242.931 302.841 C 244.225 302.861,244.789 302.750,244.459 302.541 C 244.144 302.343,245.445 302.220,247.713 302.235 C 249.978 302.251,251.591 302.099,251.740 301.858 C 252.046 301.364,254.059 303.137,254.059 303.900 C 254.059 304.896,255.561 307.927,256.051 307.921 C 257.196 307.905,267.399 296.511,267.420 295.224 C 267.426 294.857,267.689 294.556,268.004 294.556 C 268.702 294.556,268.881 275.528,268.189 274.836 C 267.975 274.623,267.760 273.489,267.711 272.317 C 267.662 271.145,267.514 270.251,267.383 270.330 C 267.062 270.523,266.591 267.480,266.872 267.026 C 266.994 266.828,266.912 266.667,266.689 266.667 C 266.467 266.667,266.285 266.409,266.285 266.094 C 266.285 265.395,266.471 265.391,263.966 266.145 C 261.054 267.021,253.783 266.984,248.905 266.069 C 248.167 265.931,247.564 265.657,247.564 265.460 C 247.564 265.030,244.162 265.153,243.890 265.593 C 243.785 265.763,242.764 265.903,241.620 265.903 C 240.477 265.903,239.542 266.074,239.542 266.285 C 239.542 266.529,236.287 266.667,230.541 266.667 C 224.638 266.667,221.622 266.535,221.777 266.285 C 221.924 266.047,221.169 265.903,219.774 265.903 C 218.543 265.903,217.372 265.748,217.173 265.560 C 216.973 265.371,216.122 265.128,215.282 265.019 C 212.582 264.669,210.009 264.014,206.824 262.866 L 203.715 261.746 202.283 265.161 M212.416 266.972 C 212.416 267.140,211.795 267.502,211.035 267.777 C 209.360 268.383,206.901 270.544,205.672 272.491 C 204.612 274.169,203.924 274.304,203.309 272.952 C 202.275 270.683,203.282 268.262,205.698 267.210 C 206.964 266.659,212.416 266.466,212.416 266.972 M213.372 269.870 C 216.319 270.601,220.165 271.288,222.350 271.472 C 223.295 271.552,226.046 271.803,228.462 272.029 C 236.012 272.736,249.758 271.695,256.351 269.917 C 259.905 268.958,259.927 268.970,259.686 271.729 C 259.216 277.126,256.471 282.525,251.832 287.178 C 250.535 288.478,249.475 289.468,249.475 289.378 C 249.475 289.288,248.658 289.714,247.660 290.325 C 238.922 295.675,226.516 293.522,218.338 285.236 C 214.776 281.627,213.348 279.961,213.473 279.561 C 213.522 279.403,213.380 279.274,213.158 279.274 C 212.935 279.274,212.860 279.102,212.989 278.892 C 213.119 278.682,213.044 278.510,212.821 278.510 C 212.598 278.510,212.448 278.381,212.487 278.223 C 212.526 278.066,212.249 277.249,211.871 276.409 C 210.003 272.252,209.308 268.780,210.411 269.104 C 210.778 269.212,212.111 269.557,213.372 269.870 " stroke="none" fill="#ef886f" fill-rule="evenodd"></path><path id="path2" d="M225.215 102.394 C 208.978 108.566,191.075 112.455,178.716 112.493 C 170.561 112.519,169.505 111.542,174.515 108.605 C 176.527 107.427,176.372 107.109,174.153 107.864 C 163.643 111.442,147.772 120.005,147.903 122.027 C 147.952 122.776,147.966 122.772,148.121 121.968 C 148.321 120.930,148.589 120.918,155.110 121.655 C 157.736 121.952,163.968 122.582,168.959 123.055 C 178.249 123.936,179.091 124.145,176.600 124.950 C 171.413 126.627,162.751 130.521,162.751 131.177 C 162.751 131.847,174.115 129.593,190.504 125.671 C 197.230 124.061,213.855 120.273,219.675 119.023 C 221.041 118.730,228.949 117.032,237.249 115.250 C 245.549 113.468,254.403 111.628,256.925 111.162 C 263.253 109.991,263.247 110.012,257.808 108.009 C 242.765 102.469,230.553 100.365,225.215 102.394 M147.289 125.895 C 147.139 127.496,147.097 128.887,147.196 128.985 C 147.295 129.084,147.499 127.855,147.649 126.254 C 147.799 124.653,147.841 123.262,147.742 123.164 C 147.643 123.065,147.439 124.294,147.289 125.895 M146.514 133.333 C 146.363 135.038,146.321 136.516,146.422 136.616 C 146.522 136.716,146.726 135.401,146.875 133.694 C 147.024 131.987,147.065 130.510,146.967 130.412 C 146.869 130.313,146.665 131.628,146.514 133.333 M146.045 139.446 C 146.045 140.392,146.119 140.778,146.210 140.306 C 146.301 139.833,146.301 139.059,146.210 138.586 C 146.119 138.114,146.045 138.500,146.045 139.446 M145.684 144.604 C 145.686 146.074,145.755 146.629,145.838 145.837 C 145.920 145.044,145.919 143.841,145.834 143.162 C 145.750 142.484,145.682 143.133,145.684 144.604 M145.291 150.907 C 145.291 152.063,145.363 152.536,145.450 151.958 C 145.538 151.380,145.538 150.435,145.450 149.857 C 145.363 149.279,145.291 149.752,145.291 150.907 M213.467 154.240 C 214.150 154.325,215.267 154.325,215.950 154.240 C 216.633 154.155,216.074 154.086,214.709 154.086 C 213.343 154.086,212.784 154.155,213.467 154.240 M218.147 154.847 C 218.147 154.913,218.706 155.472,219.389 156.089 L 220.630 157.211 219.508 155.969 C 218.462 154.812,218.147 154.552,218.147 154.847 M204.202 155.492 C 203.229 155.910,204.233 155.910,205.540 155.492 C 206.307 155.246,206.345 155.184,205.731 155.175 C 205.310 155.169,204.623 155.311,204.202 155.492 M144.938 159.503 C 144.938 161.815,145.001 162.711,145.077 161.495 C 145.153 160.279,145.153 158.388,145.076 157.293 C 144.999 156.197,144.937 157.192,144.938 159.503 M200.000 156.999 C 199.160 157.397,198.644 157.723,198.854 157.725 C 199.375 157.728,202.390 156.317,201.910 156.294 C 201.700 156.284,200.840 156.601,200.000 156.999 M256.499 156.528 C 255.775 156.620,254.878 157.157,254.207 157.900 L 253.104 159.121 254.250 158.101 C 255.122 157.325,256.037 156.993,258.071 156.717 C 259.683 156.498,260.138 156.359,259.217 156.366 C 258.376 156.373,257.153 156.446,256.499 156.528 M262.731 157.059 C 263.823 157.241,265.585 157.720,266.647 158.123 C 267.708 158.527,268.483 158.706,268.370 158.522 C 268.045 157.997,263.281 156.633,261.946 156.683 C 261.074 156.715,261.289 156.818,262.731 157.059 M252.319 161.389 C 252.074 162.698,252.664 165.226,253.309 165.625 C 253.497 165.741,253.382 165.193,253.054 164.408 C 252.670 163.490,252.540 162.464,252.690 161.529 C 252.979 159.719,252.656 159.597,252.319 161.389 M190.435 163.610 L 188.539 165.616 190.544 163.720 C 191.648 162.677,192.550 161.775,192.550 161.714 C 192.550 161.429,192.196 161.747,190.435 163.610 M274.840 164.334 C 276.523 166.301,277.250 168.271,276.588 169.069 C 276.294 169.423,276.272 169.628,276.527 169.628 C 277.171 169.628,277.418 168.292,276.985 167.152 C 276.473 165.806,274.284 162.751,273.831 162.751 C 273.640 162.751,274.094 163.463,274.840 164.334 M220.439 164.979 C 220.439 165.279,219.344 165.450,217.096 165.503 L 213.754 165.581 216.965 165.710 C 219.935 165.830,221.381 165.476,220.700 164.795 C 220.557 164.651,220.439 164.734,220.439 164.979 M210.225 166.081 C 210.806 166.169,211.665 166.167,212.135 166.076 C 212.605 165.985,212.130 165.913,211.079 165.916 C 210.029 165.919,209.644 165.993,210.225 166.081 M207.163 166.452 C 207.531 166.549,208.133 166.549,208.500 166.452 C 208.868 166.356,208.567 166.278,207.832 166.278 C 207.096 166.278,206.796 166.356,207.163 166.452 M254.010 166.667 C 254.459 167.239,255.122 167.324,258.595 167.255 L 262.655 167.174 258.666 167.049 C 256.309 166.976,254.433 166.735,254.081 166.461 C 253.558 166.054,253.549 166.079,254.010 166.667 M263.706 167.599 C 264.074 167.695,264.675 167.695,265.043 167.599 C 265.411 167.503,265.110 167.424,264.374 167.424 C 263.639 167.424,263.338 167.503,263.706 167.599 M185.387 171.633 C 185.469 172.698,185.633 172.882,186.538 172.921 C 187.458 172.962,187.473 172.947,186.656 172.803 C 185.978 172.683,185.659 172.326,185.505 171.515 C 185.302 170.446,185.296 170.452,185.387 171.633 M189.303 171.947 C 188.462 172.351,188.204 172.575,188.730 172.444 C 189.811 172.175,191.797 171.179,191.213 171.199 C 191.003 171.206,190.143 171.543,189.303 171.947 M201.562 175.961 C 196.159 177.171,186.657 182.563,191.542 181.647 C 192.471 181.472,192.883 181.557,193.035 181.952 C 193.188 182.351,193.011 182.453,192.373 182.331 C 190.941 182.057,189.248 183.178,188.966 184.588 C 188.830 185.270,188.334 186.250,187.864 186.766 L 187.011 187.705 188.237 186.819 C 188.912 186.332,189.386 185.809,189.292 185.656 C 189.197 185.503,189.333 185.394,189.593 185.414 C 189.854 185.434,191.528 184.728,193.314 183.846 C 202.092 179.512,210.353 179.716,215.828 184.402 C 217.410 185.756,219.845 189.594,218.330 188.344 C 217.690 187.817,217.655 187.846,217.864 188.730 C 218.862 192.961,218.417 198.484,216.790 202.052 C 216.276 203.180,215.855 204.152,215.855 204.211 C 215.855 204.270,216.446 204.667,217.168 205.093 L 218.481 205.868 219.787 204.271 C 223.132 200.182,224.955 195.209,225.276 189.303 L 225.483 185.482 222.900 183.599 C 219.911 181.420,215.388 179.361,211.949 178.614 L 209.551 178.093 212.607 178.018 C 214.288 177.976,215.866 177.967,216.113 177.997 C 217.728 178.197,216.579 177.166,214.433 176.491 C 210.976 175.403,205.128 175.162,201.562 175.961 M144.936 181.853 C 144.936 184.059,144.999 184.962,145.076 183.859 C 145.153 182.755,145.153 180.950,145.076 179.847 C 144.999 178.744,144.936 179.647,144.936 181.853 M255.702 179.103 C 253.347 179.944,250.893 181.572,250.057 182.847 C 249.256 184.070,249.852 184.067,253.984 182.831 C 255.698 182.318,258.779 181.540,260.833 181.102 C 265.906 180.020,265.938 180.004,264.565 179.274 C 262.796 178.334,258.111 178.243,255.702 179.103 M206.972 180.221 C 206.184 180.303,204.895 180.303,204.107 180.221 C 203.319 180.139,203.964 180.071,205.540 180.071 C 207.116 180.071,207.760 180.139,206.972 180.221 M216.011 181.280 C 216.355 181.805,216.890 182.235,217.201 182.235 C 217.511 182.235,217.762 182.536,217.759 182.904 C 217.755 183.432,217.684 183.462,217.420 183.046 C 217.226 182.739,216.884 182.644,216.603 182.818 C 216.299 183.006,216.214 182.963,216.374 182.704 C 216.516 182.475,216.273 182.177,215.832 182.037 C 215.392 181.897,215.131 181.686,215.250 181.567 C 215.369 181.448,215.275 181.119,215.041 180.837 C 214.777 180.520,214.762 180.325,215.000 180.325 C 215.212 180.325,215.667 180.755,216.011 181.280 M260.936 182.782 C 259.015 183.316,256.142 184.704,255.795 185.264 C 255.671 185.465,256.350 185.193,257.304 184.660 C 261.863 182.112,267.296 182.073,270.721 184.564 L 271.824 185.366 270.767 184.386 C 268.718 182.487,264.481 181.795,260.936 182.782 M221.103 185.980 C 220.733 186.053,220.545 186.299,220.685 186.525 C 220.836 186.770,220.761 186.827,220.498 186.665 C 220.256 186.515,220.057 186.559,220.057 186.763 C 220.057 186.967,219.756 187.076,219.389 187.006 C 219.021 186.936,218.548 186.862,218.338 186.843 C 218.128 186.824,218.198 186.654,218.494 186.467 C 218.791 186.279,219.292 186.225,219.608 186.347 C 220.013 186.502,220.090 186.418,219.870 186.061 C 219.669 185.736,219.705 185.647,219.972 185.812 C 220.200 185.953,220.496 185.890,220.630 185.673 C 220.764 185.456,221.077 185.407,221.325 185.563 C 221.635 185.757,221.565 185.888,221.103 185.980 M252.763 187.987 C 250.768 190.143,250.114 191.404,250.991 191.404 C 251.194 191.404,251.270 191.167,251.159 190.878 C 251.044 190.577,251.887 189.347,253.122 188.012 C 254.313 186.726,255.202 185.673,255.097 185.673 C 254.992 185.673,253.942 186.715,252.763 187.987 M145.286 189.303 C 145.289 190.353,145.363 190.738,145.451 190.157 C 145.539 189.576,145.536 188.717,145.446 188.247 C 145.355 187.777,145.283 188.252,145.286 189.303 M273.055 188.349 C 273.974 189.336,274.575 189.182,274.119 188.078 C 273.921 187.597,273.782 187.540,273.653 187.886 C 273.506 188.280,273.341 188.284,272.838 187.908 C 272.490 187.649,272.588 187.847,273.055 188.349 M185.368 188.806 C 184.798 189.376,184.769 189.986,185.320 189.803 C 185.546 189.727,185.703 189.517,185.669 189.336 C 185.636 189.155,185.838 188.861,186.118 188.683 C 186.399 188.505,186.448 188.357,186.227 188.354 C 186.007 188.350,185.620 188.554,185.368 188.806 M219.789 190.410 C 219.411 190.913,218.965 191.242,218.797 191.139 C 218.629 191.037,218.870 190.625,219.333 190.224 C 220.464 189.242,220.617 189.305,219.789 190.410 M249.475 191.109 C 249.475 191.240,250.087 192.675,250.836 194.296 C 256.639 206.858,260.460 221.061,261.549 234.114 L 261.802 237.156 259.554 238.002 C 252.018 240.839,244.612 240.945,233.955 238.369 C 231.407 237.753,228.683 237.249,227.902 237.249 L 226.480 237.249 226.612 233.428 C 226.756 229.226,226.566 228.862,225.410 231.128 C 223.583 234.710,222.979 241.712,224.216 244.967 C 224.559 245.869,224.506 246.007,223.764 246.141 C 223.301 246.224,223.872 246.217,225.032 246.125 C 229.296 245.786,237.229 247.826,240.064 249.990 C 242.841 252.109,247.098 254.539,247.547 254.261 C 247.767 254.125,247.947 254.215,247.947 254.460 C 247.947 254.705,248.212 254.803,248.539 254.678 C 248.866 254.552,249.043 254.595,248.933 254.772 C 248.676 255.188,250.392 255.969,251.562 255.969 C 252.761 255.969,255.603 254.730,257.680 253.301 C 258.601 252.667,259.581 252.146,259.859 252.143 C 260.136 252.140,260.621 251.952,260.936 251.725 C 261.420 251.377,261.405 251.346,260.840 251.528 C 259.505 251.957,261.282 249.436,264.274 246.654 C 269.320 241.964,269.962 234.948,265.781 230.181 C 264.458 228.674,264.049 227.869,263.841 226.361 C 263.301 222.454,262.002 216.516,260.961 213.196 C 259.976 210.056,259.939 209.727,260.507 209.228 C 262.341 207.616,268.150 205.553,270.924 205.528 C 271.843 205.520,272.044 205.422,271.633 205.182 C 270.689 204.630,262.895 205.410,260.660 206.280 L 258.664 207.057 256.416 202.573 C 253.532 196.820,249.475 190.120,249.475 191.109 M145.668 194.651 C 145.671 195.702,145.745 196.086,145.833 195.506 C 145.921 194.925,145.918 194.065,145.828 193.596 C 145.737 193.126,145.665 193.601,145.668 194.651 M221.378 195.417 C 221.402 196.151,221.287 196.753,221.122 196.753 C 220.957 196.753,220.821 196.036,220.821 195.161 C 220.821 193.266,221.314 193.492,221.378 195.417 M146.037 198.472 C 146.041 199.312,146.120 199.611,146.211 199.136 C 146.302 198.661,146.299 197.973,146.203 197.608 C 146.108 197.243,146.033 197.631,146.037 198.472 M107.177 199.853 C 105.804 201.138,104.680 202.301,104.680 202.439 C 104.680 202.576,105.828 201.590,107.232 200.247 L 109.784 197.806 112.676 198.012 C 114.808 198.163,115.167 198.131,114.040 197.889 C 110.543 197.138,109.875 197.329,107.177 199.853 M221.366 199.172 C 221.101 199.864,220.439 200.046,220.439 199.427 C 220.439 199.217,220.630 199.045,220.862 199.045 C 221.107 199.045,221.178 198.764,221.031 198.376 C 220.847 197.894,220.893 197.823,221.193 198.121 C 221.423 198.349,221.501 198.822,221.366 199.172 M120.535 199.752 C 122.216 200.343,123.935 200.952,124.355 201.106 C 124.776 201.260,124.626 201.100,124.022 200.752 C 122.683 199.978,118.923 198.660,118.087 198.671 C 117.752 198.675,118.854 199.162,120.535 199.752 M146.419 202.292 C 146.423 203.133,146.502 203.432,146.593 202.956 C 146.684 202.481,146.681 201.793,146.585 201.428 C 146.490 201.063,146.415 201.452,146.419 202.292 M184.547 202.433 C 184.108 202.734,184.226 202.868,185.120 203.079 C 189.533 204.124,198.681 207.007,203.753 208.952 C 212.079 212.145,212.455 211.922,205.937 207.660 C 199.665 203.560,187.303 200.539,184.547 202.433 M103.296 204.107 C 102.168 205.394,101.509 206.304,101.704 206.304 C 101.800 206.304,102.430 205.616,103.106 204.776 C 104.417 203.144,104.550 202.676,103.296 204.107 M129.967 204.207 C 130.345 204.656,130.672 205.847,130.756 207.072 L 130.900 209.169 130.970 207.032 C 131.030 205.235,130.904 204.778,130.181 204.166 C 129.328 203.443,129.326 203.444,129.967 204.207 M109.341 205.693 C 104.024 211.460,99.938 219.803,98.811 227.193 C 97.966 232.728,115.566 245.153,130.085 249.273 C 134.055 250.399,134.301 250.527,134.539 251.593 C 134.866 253.054,134.490 248.014,134.068 245.272 L 133.745 243.171 133.921 245.618 L 134.098 248.066 133.314 247.356 C 127.498 242.093,126.251 230.481,130.750 223.496 L 131.612 222.159 131.856 224.069 C 132.002 225.210,132.041 224.610,131.953 222.577 C 131.872 220.707,131.803 218.386,131.799 217.420 C 131.795 216.190,131.687 215.832,131.439 216.225 C 131.154 216.674,130.566 216.286,128.475 214.267 C 124.147 210.089,113.776 204.011,110.973 204.011 C 110.927 204.011,110.193 204.768,109.341 205.693 M147.132 207.864 C 147.157 208.582,147.317 209.685,147.488 210.315 C 147.693 211.069,147.727 210.676,147.586 209.169 C 147.352 206.643,147.061 205.808,147.132 207.864 M131.170 212.416 C 131.170 213.992,131.237 214.637,131.319 213.849 C 131.402 213.061,131.402 211.772,131.319 210.984 C 131.237 210.196,131.170 210.840,131.170 212.416 M147.941 212.416 C 147.941 212.942,148.073 213.887,148.233 214.518 C 148.493 215.540,148.525 215.561,148.525 214.709 C 148.525 214.183,148.393 213.238,148.233 212.607 C 147.973 211.585,147.941 211.564,147.941 212.416 M97.278 214.319 C 96.416 216.473,96.549 216.794,97.456 214.749 C 97.866 213.825,98.133 213.001,98.050 212.918 C 97.967 212.835,97.619 213.465,97.278 214.319 M148.698 216.619 C 148.694 217.144,148.829 218.004,148.997 218.529 C 149.408 219.813,149.408 218.426,148.997 216.810 C 148.735 215.780,148.705 215.761,148.698 216.619 M132.229 228.494 C 132.251 229.632,132.408 231.595,132.576 232.856 C 132.793 234.484,132.824 233.930,132.680 230.946 C 132.471 226.582,132.156 224.873,132.229 228.494 M265.027 235.048 C 264.935 235.523,264.857 235.224,264.853 234.384 C 264.849 233.543,264.923 233.155,265.019 233.520 C 265.115 233.885,265.118 234.573,265.027 235.048 M133.055 237.249 C 133.055 238.195,133.130 238.582,133.221 238.109 C 133.312 237.636,133.312 236.862,133.221 236.390 C 133.130 235.917,133.055 236.304,133.055 237.249 M154.399 238.777 C 154.399 239.093,154.547 239.694,154.728 240.115 C 154.935 240.596,155.056 240.667,155.056 240.306 C 155.056 239.990,154.908 239.389,154.728 238.968 C 154.521 238.487,154.399 238.416,154.399 238.777 M133.437 240.688 C 133.437 241.633,133.512 242.020,133.603 241.547 C 133.694 241.074,133.694 240.301,133.603 239.828 C 133.512 239.355,133.437 239.742,133.437 240.688 M286.945 241.356 C 286.964 241.781,287.047 241.845,287.173 241.531 C 287.335 241.128,287.487 241.128,288.003 241.531 C 288.567 241.972,288.578 241.954,288.110 241.356 C 287.821 240.989,287.435 240.688,287.250 240.688 C 287.066 240.688,286.929 240.989,286.945 241.356 M286.622 244.126 C 286.622 244.862,286.700 245.162,286.796 244.795 C 286.892 244.427,286.892 243.825,286.796 243.457 C 286.700 243.090,286.622 243.391,286.622 244.126 M285.987 248.356 C 285.841 249.646,285.800 250.780,285.896 250.875 C 285.992 250.971,286.193 249.997,286.342 248.711 C 286.491 247.424,286.532 246.290,286.433 246.191 C 286.334 246.092,286.133 247.066,285.987 248.356 M209.647 250.263 C 208.438 250.887,207.450 251.483,207.450 251.588 C 207.450 251.758,211.996 249.594,212.385 249.238 C 212.885 248.781,211.555 249.278,209.647 250.263 M158.385 251.003 C 158.526 251.528,158.800 252.216,158.995 252.531 C 159.241 252.929,159.271 252.813,159.093 252.149 C 158.953 251.624,158.679 250.936,158.484 250.621 C 158.238 250.223,158.208 250.339,158.385 251.003 M262.772 251.380 C 263.467 251.545,264.894 252.213,265.945 252.866 C 266.995 253.519,267.747 253.879,267.615 253.666 C 267.151 252.915,263.407 251.010,262.464 251.046 C 261.664 251.075,261.713 251.129,262.772 251.380 M285.228 253.327 C 285.084 254.409,285.044 255.371,285.138 255.465 C 285.231 255.559,285.430 254.755,285.578 253.677 C 285.726 252.600,285.767 251.637,285.668 251.539 C 285.569 251.440,285.371 252.245,285.228 253.327 M134.950 254.441 C 134.950 255.177,135.029 255.478,135.125 255.110 C 135.221 254.742,135.221 254.140,135.125 253.773 C 135.029 253.405,134.950 253.706,134.950 254.441 M199.644 257.829 C 198.294 260.492,198.419 260.830,199.817 258.294 C 200.444 257.157,200.882 256.151,200.791 256.060 C 200.699 255.968,200.183 256.764,199.644 257.829 M270.997 257.366 C 271.172 257.629,271.899 258.927,272.612 260.250 C 273.325 261.573,273.912 262.521,273.917 262.356 C 273.932 261.830,272.121 258.474,271.387 257.667 C 270.997 257.239,270.822 257.104,270.997 257.366 M284.071 259.238 C 283.927 260.005,283.886 260.708,283.979 260.802 C 284.073 260.895,284.267 260.344,284.410 259.578 C 284.554 258.811,284.596 258.107,284.502 258.014 C 284.409 257.920,284.215 258.471,284.071 259.238 M162.396 261.509 C 162.396 261.719,162.641 262.321,162.942 262.846 C 163.242 263.372,163.488 263.629,163.488 263.419 C 163.488 263.209,163.242 262.607,162.942 262.082 C 162.641 261.557,162.396 261.299,162.396 261.509 M282.931 263.829 C 282.790 264.389,282.749 264.920,282.839 265.010 C 282.929 265.100,283.118 264.716,283.258 264.156 C 283.399 263.596,283.440 263.064,283.350 262.974 C 283.260 262.884,283.071 263.269,282.931 263.829 M163.652 264.374 C 163.942 265.447,166.299 270.505,166.442 270.361 C 166.521 270.283,165.891 268.774,165.042 267.010 C 164.192 265.245,163.567 264.059,163.652 264.374 M216.237 265.138 C 216.762 265.307,217.622 265.441,218.147 265.437 C 219.005 265.431,218.986 265.400,217.956 265.138 C 216.340 264.727,214.953 264.727,216.237 265.138 M248.520 265.631 C 251.681 266.732,260.396 266.819,263.747 265.784 C 266.801 264.841,266.326 264.677,263.037 265.539 C 259.301 266.519,253.538 266.511,249.666 265.521 C 245.932 264.566,245.562 264.601,248.520 265.631 M274.730 265.330 C 274.726 265.540,274.969 266.743,275.269 268.004 C 275.798 270.227,275.808 270.240,275.603 268.431 C 275.413 266.749,274.749 264.391,274.730 265.330 M220.821 265.922 C 221.767 266.090,223.056 266.219,223.687 266.208 C 224.532 266.194,224.382 266.109,223.114 265.883 C 222.168 265.715,220.879 265.586,220.248 265.597 C 219.403 265.611,219.553 265.696,220.821 265.922 M238.013 265.903 C 236.450 266.146,236.416 266.173,237.631 266.199 C 238.367 266.215,239.742 266.090,240.688 265.922 C 242.978 265.515,240.619 265.497,238.013 265.903 M227.777 266.568 C 229.186 266.641,231.593 266.641,233.126 266.569 C 234.658 266.496,233.505 266.436,230.564 266.435 C 227.622 266.435,226.368 266.494,227.777 266.568 M205.698 267.210 C 203.282 268.262,202.275 270.683,203.309 272.952 C 203.924 274.304,204.612 274.169,205.672 272.491 C 206.901 270.544,209.360 268.383,211.035 267.777 C 211.795 267.502,212.416 267.140,212.416 266.972 C 212.416 266.466,206.964 266.659,205.698 267.210 M200.048 268.569 C 199.186 270.723,199.319 271.044,200.226 268.999 C 200.636 268.075,200.903 267.251,200.820 267.168 C 200.737 267.085,200.389 267.715,200.048 268.569 M267.125 267.622 C 267.125 268.042,267.263 268.816,267.431 269.341 C 267.673 270.097,267.737 270.137,267.737 269.532 C 267.737 269.112,267.599 268.338,267.431 267.813 C 267.189 267.057,267.125 267.017,267.125 267.622 M209.745 269.602 C 209.783 278.516,221.633 290.651,232.474 292.878 C 245.282 295.508,258.514 285.198,259.691 271.670 L 259.904 269.222 258.605 269.459 C 253.162 270.452,250.522 271.159,251.066 271.478 C 251.424 271.688,251.757 272.653,251.912 273.926 C 252.104 275.505,252.062 275.885,251.744 275.454 C 251.415 275.008,251.369 275.162,251.538 276.141 C 251.690 277.024,251.626 277.322,251.324 277.135 C 251.029 276.953,250.953 277.186,251.083 277.869 C 251.188 278.419,251.170 278.806,251.043 278.730 C 250.916 278.653,250.590 278.830,250.319 279.123 C 249.917 279.558,249.917 279.662,250.319 279.687 C 250.590 279.704,250.379 279.919,249.849 280.165 C 247.581 281.216,247.117 281.784,247.380 283.185 C 247.555 284.121,247.458 284.674,247.046 285.087 C 246.699 285.434,246.545 286.036,246.665 286.578 C 246.828 287.314,246.785 287.378,246.440 286.915 C 246.102 286.461,246.062 286.552,246.248 287.357 C 246.556 288.684,245.850 290.023,245.013 289.701 C 244.566 289.530,244.470 289.601,244.684 289.947 C 244.910 290.313,244.770 290.367,244.126 290.162 C 243.653 290.012,243.358 290.037,243.469 290.218 C 243.713 290.613,241.224 290.863,237.058 290.863 C 233.192 290.863,230.399 290.619,230.597 290.299 C 230.824 289.932,229.604 289.547,229.134 289.837 C 228.911 289.975,228.511 289.790,228.245 289.426 C 227.979 289.063,227.290 288.713,226.715 288.650 C 226.140 288.587,225.338 288.128,224.932 287.630 C 224.526 287.132,224.325 286.982,224.486 287.297 C 224.648 287.612,224.237 287.298,223.575 286.599 C 222.913 285.900,222.190 285.440,221.969 285.577 C 221.747 285.714,221.612 285.684,221.668 285.511 C 221.803 285.094,217.957 281.520,217.634 281.761 C 217.496 281.864,217.469 281.833,217.575 281.693 C 217.806 281.385,216.616 280.000,216.281 280.189 C 216.152 280.261,215.624 279.785,215.107 279.129 C 214.358 278.177,214.323 278.052,214.936 278.510 C 215.358 278.825,215.093 278.499,214.346 277.786 C 213.600 277.072,213.255 276.642,213.581 276.831 C 213.977 277.060,213.951 276.969,213.501 276.552 C 213.133 276.210,212.924 275.837,213.038 275.723 C 213.153 275.609,212.884 275.322,212.441 275.085 C 211.802 274.743,211.658 274.351,211.740 273.181 C 211.797 272.370,211.972 271.787,212.130 271.884 C 212.287 271.981,212.416 271.740,212.416 271.349 C 212.416 270.799,212.718 270.630,213.753 270.601 C 214.499 270.580,214.991 270.721,214.867 270.922 C 214.736 271.134,215.051 271.180,215.632 271.034 C 216.238 270.882,216.619 270.946,216.619 271.200 C 216.619 271.461,217.065 271.525,217.824 271.373 C 218.719 271.194,218.956 271.252,218.742 271.598 C 218.525 271.949,218.805 271.998,219.884 271.796 C 220.927 271.600,221.240 271.648,221.040 271.971 C 220.840 272.295,221.213 272.353,222.417 272.184 C 223.716 272.003,223.946 272.048,223.496 272.398 C 223.046 272.747,223.313 272.796,224.737 272.627 C 225.735 272.509,226.552 272.540,226.552 272.697 C 226.552 272.854,230.076 272.981,234.384 272.979 C 238.691 272.976,242.216 272.834,242.216 272.662 C 242.216 272.491,243.014 272.470,243.989 272.616 C 245.335 272.818,245.694 272.770,245.476 272.418 C 245.267 272.080,245.587 271.981,246.664 272.052 C 249.385 272.231,250.812 272.054,250.351 271.593 C 250.044 271.286,249.055 271.282,246.741 271.578 C 235.045 273.076,220.561 272.089,210.411 269.104 C 209.947 268.968,209.743 269.120,209.745 269.602 M275.915 276.100 C 275.821 282.506,276.271 283.344,277.736 279.491 C 278.364 277.839,277.784 278.403,277.074 280.134 L 276.409 281.757 276.202 276.218 L 275.995 270.678 275.915 276.100 M193.357 272.822 C 193.121 273.497,192.996 274.116,193.077 274.198 C 193.159 274.280,193.418 273.794,193.654 273.119 C 193.889 272.444,194.015 271.825,193.933 271.743 C 193.851 271.661,193.592 272.147,193.357 272.822 M167.370 272.588 C 167.370 272.798,167.784 273.744,168.290 274.690 C 168.797 275.635,169.211 276.237,169.211 276.027 C 169.211 275.817,168.797 274.871,168.290 273.926 C 167.784 272.980,167.370 272.378,167.370 272.588 M268.457 275.263 C 268.575 276.734,268.736 278.009,268.815 278.096 C 269.081 278.390,268.918 275.661,268.579 274.117 C 268.320 272.942,268.292 273.207,268.457 275.263 M197.933 274.724 C 197.675 275.587,197.534 276.362,197.620 276.448 C 197.706 276.534,197.988 275.899,198.246 275.037 C 198.504 274.175,198.645 273.399,198.560 273.313 C 198.474 273.227,198.192 273.862,197.933 274.724 M192.015 276.829 C 191.646 278.001,191.413 279.028,191.497 279.112 C 191.581 279.196,191.952 278.306,192.321 277.135 C 192.690 275.963,192.924 274.936,192.840 274.852 C 192.756 274.768,192.385 275.657,192.015 276.829 M269.114 284.814 C 269.114 288.176,269.173 289.500,269.243 287.756 C 269.314 286.013,269.314 283.262,269.243 281.644 C 269.171 280.025,269.113 281.452,269.114 284.814 M172.660 283.286 C 173.763 285.387,174.842 287.278,175.059 287.488 C 175.275 287.698,174.545 286.151,173.436 284.050 C 172.327 281.948,171.248 280.057,171.038 279.847 C 170.827 279.637,171.557 281.184,172.660 283.286 M190.858 280.639 C 190.718 281.198,190.676 281.730,190.766 281.820 C 190.857 281.910,191.045 281.526,191.186 280.966 C 191.326 280.406,191.368 279.874,191.277 279.784 C 191.187 279.694,190.999 280.079,190.858 280.639 M195.313 288.825 C 195.313 289.561,195.392 289.862,195.488 289.494 C 195.584 289.126,195.584 288.524,195.488 288.157 C 195.392 287.789,195.313 288.090,195.313 288.825 M268.575 292.932 C 268.573 293.720,268.315 294.881,268.001 295.511 L 267.430 296.657 268.194 295.755 C 268.882 294.944,269.347 291.500,268.768 291.500 C 268.663 291.500,268.576 292.144,268.575 292.932 M183.763 293.215 C 183.763 293.477,186.102 294.636,186.277 294.461 C 186.360 294.379,185.828 294.025,185.095 293.675 C 184.363 293.326,183.763 293.119,183.763 293.215 M194.957 296.084 C 194.957 297.240,195.029 297.713,195.116 297.135 C 195.204 296.557,195.204 295.611,195.116 295.033 C 195.029 294.456,194.957 294.928,194.957 296.084 M265.495 298.854 C 264.575 299.957,264.125 300.618,264.495 300.323 C 265.238 299.731,267.591 296.848,267.332 296.848 C 267.242 296.848,266.415 297.751,265.495 298.854 M197.135 299.252 C 197.135 299.509,206.736 303.038,206.924 302.850 C 207.004 302.770,205.059 301.970,202.601 301.073 C 200.143 300.175,197.907 299.355,197.633 299.250 C 197.359 299.145,197.135 299.146,197.135 299.252 M259.783 305.158 L 255.778 309.265 259.885 305.260 C 263.700 301.540,264.166 301.051,263.890 301.051 C 263.834 301.051,261.986 302.899,259.783 305.158 M250.804 302.470 C 251.851 302.557,252.853 302.832,253.030 303.081 C 253.255 303.396,253.306 303.359,253.199 302.961 C 253.087 302.547,252.467 302.377,250.973 302.350 L 248.902 302.311 250.804 302.470 M242.980 302.961 C 240.905 303.215,240.900 303.219,242.598 303.239 C 243.543 303.251,245.349 303.132,246.609 302.976 L 248.902 302.691 246.991 302.697 C 245.941 302.701,244.136 302.819,242.980 302.961 M237.922 303.613 C 238.398 303.704,239.085 303.701,239.450 303.605 C 239.816 303.510,239.427 303.435,238.586 303.439 C 237.746 303.443,237.447 303.522,237.922 303.613 M233.148 303.999 C 233.728 304.087,234.588 304.085,235.058 303.994 C 235.528 303.903,235.053 303.831,234.002 303.834 C 232.951 303.837,232.567 303.911,233.148 303.999 M227.552 306.397 C 225.736 307.771,225.353 308.164,226.361 307.616 C 227.237 307.140,229.514 305.282,229.226 305.277 C 229.121 305.276,228.368 305.780,227.552 306.397 M223.145 307.683 C 223.233 307.758,223.820 307.935,224.451 308.076 C 225.288 308.264,225.442 308.228,225.024 307.945 C 224.508 307.596,222.762 307.352,223.145 307.683 " stroke="none" fill="#c76158" fill-rule="evenodd"></path><path id="path3" d="M0.000 191.022 L 0.000 382.044 200.000 382.044 L 400.000 382.044 400.000 191.022 L 400.000 0.000 200.000 0.000 L 0.000 0.000 0.000 191.022 M225.729 39.321 C 226.910 39.923,230.832 42.558,234.180 44.997 C 234.549 45.266,236.551 45.898,238.630 46.401 C 319.602 66.007,371.446 148.127,355.257 231.137 C 335.809 330.857,225.877 386.676,133.406 343.784 C 131.660 342.974,130.054 342.311,129.837 342.311 C 129.398 342.311,106.386 349.371,104.755 350.006 C 84.882 357.740,75.754 357.455,71.603 348.969 C 69.733 345.147,70.049 341.123,74.898 307.064 C 75.519 302.702,76.027 298.998,76.027 298.833 C 76.027 298.667,74.976 297.165,73.691 295.493 C 30.439 239.225,31.358 157.017,75.854 101.815 C 77.938 99.230,80.005 96.123,81.225 93.746 C 97.537 61.938,125.448 46.026,168.593 43.939 C 172.629 43.743,177.822 43.329,180.134 43.018 C 182.445 42.708,185.240 42.412,186.344 42.362 L 188.352 42.270 187.586 41.454 C 184.567 38.241,194.539 38.033,205.540 41.081 C 207.326 41.576,210.334 42.094,212.225 42.231 C 214.117 42.369,217.631 42.719,220.034 43.009 C 225.157 43.626,224.981 43.695,223.720 41.544 C 221.997 38.603,222.731 37.791,225.729 39.321 M205.364 184.437 C 212.885 189.263,212.619 200.115,204.873 204.491 L 203.251 205.407 205.939 207.191 L 208.628 208.975 210.426 208.054 C 215.313 205.554,217.569 201.075,217.572 193.870 C 217.575 186.414,215.612 184.553,207.068 183.908 L 204.202 183.692 205.364 184.437 M261.891 186.019 C 260.880 186.282,260.835 186.349,261.509 186.587 C 268.499 189.050,270.445 197.882,265.271 203.658 C 264.364 204.670,264.069 205.198,264.501 205.037 C 264.886 204.893,266.203 204.776,267.427 204.776 L 269.654 204.776 270.679 201.815 C 272.696 195.991,272.245 188.911,269.710 186.617 C 268.863 185.850,263.973 185.476,261.891 186.019 M187.329 189.088 C 184.539 190.789,185.043 201.701,187.912 201.724 C 188.257 201.727,188.923 201.833,189.393 201.959 C 190.234 202.184,190.230 202.153,189.137 199.988 C 187.378 196.500,187.300 192.779,188.908 189.016 C 189.277 188.152,188.830 188.173,187.329 189.088 M251.798 191.346 C 251.174 192.512,251.303 192.837,251.997 191.846 C 252.334 191.366,252.519 190.883,252.410 190.774 C 252.300 190.664,252.025 190.922,251.798 191.346 M212.416 272.494 C 212.416 276.529,221.654 285.956,228.586 288.995 C 232.896 290.885,239.677 291.285,243.550 289.878 C 245.251 289.259,246.432 286.698,247.009 282.375 C 247.268 280.433,247.364 280.287,248.759 279.740 C 250.422 279.086,250.876 278.077,251.273 274.153 L 251.502 271.896 250.011 272.143 C 236.960 274.302,225.392 273.965,214.367 271.105 L 212.416 270.599 212.416 272.494 " stroke="none" fill="#fbfbfb" fill-rule="evenodd"></path><path id="path4" d="M263.674 111.634 C 264.374 112.516,265.119 113.523,265.330 113.871 C 265.540 114.219,266.178 115.173,266.748 115.991 C 267.319 116.809,268.264 118.166,268.850 119.007 C 269.435 119.847,270.164 121.051,270.470 121.681 C 270.775 122.311,271.331 123.179,271.704 123.608 C 272.702 124.757,278.892 137.362,278.892 138.246 C 278.892 138.492,279.044 138.991,279.230 139.356 C 280.267 141.396,281.948 146.724,281.948 147.974 C 281.948 148.512,282.105 149.049,282.296 149.167 C 282.487 149.285,282.842 150.628,283.084 152.150 C 283.326 153.673,283.682 155.864,283.875 157.020 C 284.432 160.350,284.447 173.253,283.899 176.504 C 283.250 180.353,281.194 188.823,280.789 189.316 C 280.295 189.915,280.225 193.190,280.693 193.764 C 280.920 194.042,281.314 195.043,281.569 195.989 C 281.824 196.934,282.174 198.052,282.347 198.472 C 282.519 198.892,282.913 200.267,283.221 201.528 C 283.529 202.789,284.139 205.137,284.577 206.747 C 285.014 208.356,285.476 210.677,285.602 211.904 C 285.729 213.131,286.009 214.651,286.226 215.282 C 286.855 217.113,287.515 223.893,288.287 236.452 C 288.541 240.586,288.518 240.798,287.852 240.542 C 287.195 240.291,287.198 240.327,287.892 241.095 C 289.761 243.165,288.757 225.226,286.276 212.225 C 285.065 205.881,282.469 195.923,281.127 192.475 C 280.813 191.666,280.896 190.927,281.514 189.037 C 286.636 173.380,285.753 149.585,279.643 138.592 C 279.440 138.227,279.274 137.711,279.274 137.445 C 279.274 136.765,273.891 125.962,271.972 122.792 C 268.550 117.140,263.429 110.029,262.780 110.029 C 262.571 110.029,262.973 110.751,263.674 111.634 M148.031 122.768 C 147.888 123.720,147.850 124.724,147.946 125.000 C 148.042 125.276,148.250 124.588,148.407 123.471 C 148.565 122.355,148.603 121.350,148.492 121.239 C 148.381 121.129,148.174 121.817,148.031 122.768 M147.201 131.041 C 147.201 132.197,147.273 132.670,147.361 132.092 C 147.448 131.514,147.448 130.568,147.361 129.990 C 147.273 129.413,147.201 129.885,147.201 131.041 M146.441 138.873 C 146.443 140.134,146.515 140.603,146.600 139.917 C 146.685 139.230,146.683 138.199,146.596 137.624 C 146.509 137.050,146.439 137.612,146.441 138.873 M145.630 149.570 C 145.585 151.041,145.453 152.674,145.336 153.200 C 145.156 154.010,145.188 154.054,145.549 153.491 C 145.799 153.099,145.920 151.613,145.843 149.862 L 145.713 146.896 145.630 149.570 M213.856 153.859 C 214.543 153.944,215.574 153.942,216.148 153.855 C 216.722 153.767,216.160 153.698,214.900 153.700 C 213.639 153.702,213.169 153.774,213.856 153.859 M207.832 154.366 C 206.971 154.560,207.447 154.593,209.169 154.460 C 210.640 154.345,211.915 154.187,212.003 154.108 C 212.275 153.861,209.237 154.049,207.832 154.366 M218.644 155.147 C 221.408 157.425,222.340 161.132,221.000 164.519 L 220.415 165.998 221.191 165.096 C 223.367 162.569,220.641 153.964,217.665 153.964 C 217.414 153.964,217.855 154.496,218.644 155.147 M145.305 157.402 C 145.305 158.978,145.373 159.623,145.455 158.835 C 145.537 158.047,145.537 156.757,145.455 155.969 C 145.373 155.181,145.305 155.826,145.305 157.402 M203.112 155.351 C 202.091 155.664,201.328 155.992,201.415 156.079 C 201.502 156.166,202.680 155.911,204.034 155.512 C 205.387 155.113,206.151 154.785,205.731 154.784 C 205.310 154.782,204.132 155.037,203.112 155.351 M254.140 157.383 C 252.850 158.615,252.140 159.748,252.166 160.529 C 252.175 160.805,252.503 160.430,252.893 159.694 C 253.737 158.107,255.101 156.786,256.160 156.529 C 256.893 156.352,256.892 156.343,256.122 156.300 C 255.680 156.276,254.788 156.763,254.140 157.383 M268.165 158.450 C 272.008 160.431,276.028 164.517,277.154 167.588 C 277.450 168.395,277.704 168.861,277.719 168.625 C 277.873 166.172,272.326 159.762,268.641 158.133 C 266.162 157.038,265.840 157.252,268.165 158.450 M196.180 158.463 C 195.549 158.825,194.947 159.212,194.842 159.322 C 194.737 159.433,193.878 160.120,192.933 160.850 C 189.873 163.214,184.501 169.729,185.110 170.337 C 185.210 170.437,185.337 170.447,185.392 170.360 C 188.920 164.800,191.393 162.156,195.692 159.347 C 198.057 157.801,198.394 157.191,196.180 158.463 M251.773 162.401 C 251.776 162.908,251.948 163.582,252.154 163.897 C 252.419 164.300,252.457 164.074,252.285 163.133 C 251.982 161.485,251.765 161.174,251.773 162.401 M144.954 170.583 C 144.954 174.575,145.011 176.156,145.080 174.097 C 145.149 172.037,145.148 168.771,145.079 166.838 C 145.010 164.905,144.954 166.590,144.954 170.583 M252.531 164.782 C 252.531 167.071,254.182 167.793,259.026 167.622 L 262.655 167.494 258.562 167.415 L 254.469 167.335 253.500 165.909 C 252.967 165.125,252.531 164.618,252.531 164.782 M206.755 166.657 C 205.427 166.860,204.418 167.105,204.514 167.201 C 204.703 167.390,211.359 166.581,211.621 166.337 C 211.882 166.094,209.335 166.261,206.755 166.657 M200.573 168.109 C 199.162 168.597,198.908 168.761,199.801 168.609 C 201.734 168.279,204.332 167.413,203.438 167.396 C 203.018 167.388,201.729 167.709,200.573 168.109 M264.756 168.099 C 265.282 168.268,266.399 168.402,267.240 168.398 C 268.693 168.391,268.712 168.377,267.622 168.099 C 265.960 167.676,263.436 167.676,264.756 168.099 M269.003 168.653 C 269.653 169.302,276.393 170.380,276.863 169.910 C 277.292 169.481,277.172 169.421,276.128 169.543 C 275.442 169.623,273.709 169.417,272.278 169.085 C 269.623 168.469,268.697 168.347,269.003 168.653 M194.500 170.045 C 193.577 170.454,192.905 170.874,193.008 170.977 C 193.111 171.080,194.125 170.743,195.261 170.227 C 196.396 169.711,197.068 169.292,196.753 169.294 C 196.437 169.297,195.424 169.635,194.500 170.045 M190.640 171.729 C 190.115 172.029,189.857 172.275,190.067 172.275 C 190.277 172.275,190.879 172.029,191.404 171.729 C 191.929 171.428,192.187 171.183,191.977 171.183 C 191.767 171.183,191.165 171.428,190.640 171.729 M188.157 172.684 C 187.420 173.000,187.423 173.013,188.230 173.039 C 188.690 173.054,189.173 172.894,189.303 172.684 C 189.582 172.232,189.208 172.232,188.157 172.684 M145.265 182.617 C 145.265 183.352,145.344 183.653,145.440 183.286 C 145.536 182.918,145.536 182.316,145.440 181.948 C 145.344 181.581,145.265 181.882,145.265 182.617 M260.172 182.622 C 259.769 182.887,259.995 182.925,260.936 182.753 C 262.584 182.450,262.894 182.233,261.668 182.241 C 261.160 182.244,260.487 182.416,260.172 182.622 M257.784 183.600 C 256.303 184.403,256.471 184.681,257.975 183.915 C 259.415 183.183,259.670 182.993,259.185 183.014 C 258.992 183.023,258.362 183.286,257.784 183.600 M269.723 183.156 C 269.723 183.485,273.341 186.767,273.514 186.594 C 273.729 186.379,271.273 183.816,270.392 183.336 C 270.024 183.136,269.723 183.055,269.723 183.156 M253.400 186.724 C 252.149 187.932,250.913 189.351,250.654 189.876 C 250.360 190.471,250.706 190.223,251.572 189.216 C 252.336 188.328,253.767 186.911,254.752 186.067 C 255.737 185.223,256.347 184.531,256.108 184.530 C 255.870 184.528,254.651 185.516,253.400 186.724 M145.429 188.921 C 145.559 191.022,145.727 192.813,145.803 192.900 C 146.131 193.279,145.893 186.191,145.561 185.673 C 145.320 185.297,145.274 186.414,145.429 188.921 M186.628 187.381 C 185.998 187.897,185.667 188.326,185.893 188.334 C 186.119 188.341,186.708 187.918,187.202 187.393 C 188.342 186.179,188.101 186.174,186.628 187.381 M270.848 187.894 C 271.237 188.669,271.659 189.561,271.787 189.876 C 271.915 190.191,271.930 189.976,271.819 189.398 C 271.595 188.221,271.709 188.158,272.900 188.792 C 274.280 189.527,272.981 188.160,271.430 187.245 L 270.142 186.485 270.848 187.894 M185.546 189.748 C 185.406 189.889,185.302 190.361,185.316 190.799 C 185.338 191.531,185.369 191.521,185.706 190.680 C 186.080 189.745,186.002 189.292,185.546 189.748 M184.500 193.410 C 184.054 195.056,185.117 199.802,186.062 200.386 C 186.256 200.506,186.138 199.866,185.800 198.965 C 185.461 198.059,185.171 196.086,185.154 194.556 C 185.116 191.321,185.081 191.260,184.500 193.410 M218.243 193.887 C 218.248 194.728,218.326 195.027,218.417 194.551 C 218.509 194.076,218.505 193.389,218.410 193.023 C 218.314 192.658,218.239 193.047,218.243 193.887 M107.048 200.478 C 103.546 203.902,98.926 210.124,99.885 210.124 C 99.990 210.124,100.364 209.565,100.716 208.883 C 102.378 205.662,108.393 199.138,110.467 198.307 C 111.353 197.952,111.354 197.947,110.525 197.923 C 109.984 197.907,108.748 198.815,107.048 200.478 M113.758 198.551 C 114.233 198.642,114.921 198.639,115.286 198.543 C 115.651 198.448,115.263 198.373,114.422 198.377 C 113.582 198.381,113.283 198.460,113.758 198.551 M146.419 199.618 C 146.423 200.458,146.502 200.757,146.593 200.282 C 146.684 199.807,146.681 199.119,146.585 198.754 C 146.490 198.389,146.415 198.777,146.419 199.618 M271.490 199.857 C 271.356 200.528,271.317 201.148,271.403 201.234 C 271.490 201.321,271.679 200.851,271.824 200.191 C 271.969 199.531,272.008 198.911,271.911 198.813 C 271.814 198.716,271.624 199.186,271.490 199.857 M118.243 199.394 C 118.663 199.560,119.522 199.800,120.153 199.927 L 121.299 200.160 120.153 199.619 C 119.522 199.322,118.663 199.082,118.243 199.086 L 117.479 199.093 118.243 199.394 M121.872 200.538 C 122.187 200.717,122.875 200.977,123.400 201.116 L 124.355 201.369 123.400 200.794 C 122.875 200.477,122.187 200.217,121.872 200.216 C 121.363 200.214,121.363 200.250,121.872 200.538 M125.215 201.803 C 125.688 202.031,126.074 202.364,126.074 202.542 C 126.074 202.720,126.351 202.865,126.688 202.865 C 128.217 202.865,130.230 205.115,130.379 206.988 L 130.521 208.787 130.590 206.840 C 130.641 205.403,130.484 204.740,129.990 204.306 C 129.111 203.533,125.156 201.330,124.706 201.363 C 124.513 201.377,124.742 201.575,125.215 201.803 M146.794 202.483 C 146.794 203.219,146.872 203.520,146.968 203.152 C 147.064 202.784,147.064 202.182,146.968 201.815 C 146.872 201.447,146.794 201.748,146.794 202.483 M215.323 203.916 C 214.563 205.364,212.150 207.591,210.315 208.538 C 209.475 208.971,208.966 209.334,209.184 209.343 C 209.920 209.375,212.216 207.983,213.610 206.661 C 214.854 205.482,216.546 202.865,216.065 202.865 C 215.960 202.865,215.626 203.338,215.323 203.916 M266.578 205.052 C 267.265 205.137,268.296 205.136,268.870 205.049 C 269.444 204.961,268.883 204.892,267.622 204.894 C 266.361 204.896,265.891 204.967,266.578 205.052 M147.877 210.487 C 147.857 211.492,147.957 211.699,148.297 211.359 C 148.627 211.029,148.633 210.686,148.323 210.041 C 147.928 209.222,147.901 209.249,147.877 210.487 M130.665 212.639 C 130.668 214.303,130.823 215.904,131.008 216.197 C 131.210 216.515,131.264 215.362,131.143 213.331 C 130.887 209.037,130.657 208.705,130.665 212.639 M98.740 211.688 C 98.404 212.338,98.223 212.963,98.337 213.078 C 98.452 213.193,98.728 212.808,98.950 212.223 C 99.172 211.639,99.445 211.013,99.556 210.833 C 99.668 210.653,99.667 210.506,99.555 210.506 C 99.443 210.506,99.076 211.038,98.740 211.688 M148.680 214.709 C 148.674 215.234,148.817 216.008,148.997 216.428 L 149.325 217.192 149.314 216.428 C 149.308 216.008,149.165 215.234,148.997 214.709 L 148.691 213.754 148.680 214.709 M96.596 216.619 C 95.624 218.709,94.352 224.423,94.274 227.053 C 94.119 232.296,104.349 243.977,114.804 250.495 C 123.217 255.739,132.080 258.251,134.693 256.132 C 135.407 255.553,135.400 255.540,134.479 255.782 C 131.097 256.672,125.874 256.171,126.324 255.000 C 126.459 254.649,126.277 254.560,125.723 254.705 C 125.028 254.886,120.860 253.517,120.344 252.937 C 120.239 252.819,119.551 252.419,118.816 252.050 C 115.151 250.207,110.566 247.134,107.725 244.618 C 104.384 241.658,99.713 236.707,99.713 236.125 C 99.713 235.962,99.112 235.190,98.376 234.410 C 97.641 233.630,97.039 232.747,97.039 232.447 C 97.039 232.146,96.901 231.901,96.733 231.901 C 95.038 231.901,94.379 222.413,95.952 220.649 C 96.129 220.450,96.275 220.046,96.275 219.752 C 96.275 219.458,96.548 218.643,96.881 217.942 C 97.214 217.240,97.426 216.354,97.352 215.974 C 97.252 215.456,97.061 215.619,96.596 216.619 M150.143 221.915 C 150.143 222.747,152.151 230.402,152.324 230.229 C 152.492 230.062,150.569 221.924,150.289 221.617 C 150.209 221.530,150.143 221.664,150.143 221.915 M131.920 228.080 C 131.920 229.236,131.991 229.709,132.079 229.131 C 132.166 228.553,132.166 227.607,132.079 227.030 C 131.991 226.452,131.920 226.925,131.920 228.080 M153.433 234.766 C 153.747 236.171,153.966 236.476,153.958 235.498 C 153.955 235.096,153.777 234.508,153.564 234.193 C 153.281 233.774,153.246 233.929,153.433 234.766 M132.684 236.867 C 132.684 238.023,132.755 238.496,132.843 237.918 C 132.930 237.340,132.930 236.394,132.843 235.817 C 132.755 235.239,132.684 235.712,132.684 236.867 M155.519 241.716 C 155.605 242.707,156.202 243.549,156.229 242.716 C 156.244 242.256,156.084 241.773,155.874 241.643 C 155.664 241.513,155.504 241.546,155.519 241.716 M286.151 243.808 C 286.151 246.660,286.342 246.602,286.674 243.649 C 286.830 242.263,286.779 241.452,286.536 241.452 C 286.319 241.452,286.151 242.478,286.151 243.808 M133.363 244.390 C 133.347 245.691,133.476 246.843,133.650 246.951 C 133.824 247.058,133.897 246.166,133.812 244.968 C 133.593 241.877,133.399 241.627,133.363 244.390 M219.675 246.418 C 218.391 246.830,219.778 246.830,221.394 246.418 C 222.424 246.156,222.443 246.126,221.585 246.120 C 221.060 246.116,220.201 246.250,219.675 246.418 M215.148 247.611 C 213.814 248.034,212.788 248.446,212.869 248.526 C 212.949 248.607,214.299 248.265,215.868 247.768 C 217.437 247.270,218.462 246.858,218.147 246.853 C 217.832 246.848,216.482 247.189,215.148 247.611 M210.327 249.498 C 209.492 249.914,208.633 250.441,208.416 250.670 C 208.080 251.025,211.941 249.260,212.385 248.856 C 212.808 248.470,211.683 248.821,210.327 249.498 M285.475 250.239 C 285.475 250.974,285.554 251.275,285.650 250.907 C 285.746 250.540,285.746 249.938,285.650 249.570 C 285.554 249.202,285.475 249.503,285.475 250.239 M134.181 251.576 C 134.177 252.206,134.311 253.152,134.479 253.677 L 134.785 254.632 134.778 253.677 C 134.774 253.152,134.640 252.206,134.479 251.576 L 134.188 250.430 134.181 251.576 M260.558 251.189 C 260.147 251.684,260.240 251.703,261.275 251.343 C 262.628 250.871,262.791 250.621,261.747 250.621 C 261.352 250.621,260.817 250.876,260.558 251.189 M264.809 251.810 C 266.999 252.998,270.020 255.612,271.604 257.689 L 272.478 258.835 271.802 257.689 C 270.403 255.316,270.054 254.916,268.288 253.664 C 267.291 252.957,266.390 252.285,266.285 252.169 C 265.875 251.716,263.656 250.621,263.169 250.631 C 262.887 250.637,263.625 251.167,264.809 251.810 M206.858 251.346 C 206.658 251.534,205.892 252.007,205.155 252.396 C 204.419 252.786,203.447 253.422,202.997 253.811 C 200.507 255.959,199.428 257.095,199.440 257.555 C 199.448 257.839,199.672 257.678,199.939 257.197 C 200.338 256.479,204.154 253.532,207.314 251.503 C 207.704 251.253,207.842 251.038,207.622 251.025 C 207.401 251.013,207.057 251.157,206.858 251.346 M159.531 253.295 C 159.672 253.820,159.946 254.508,160.141 254.823 C 160.387 255.222,160.417 255.105,160.239 254.441 C 160.099 253.916,159.825 253.228,159.630 252.913 C 159.384 252.515,159.354 252.631,159.531 253.295 M284.450 255.136 C 284.293 256.043,284.257 256.877,284.369 256.989 C 284.647 257.268,285.125 254.607,284.909 253.984 C 284.814 253.710,284.607 254.228,284.450 255.136 M160.701 256.351 C 160.830 256.877,161.170 257.822,161.457 258.453 C 161.876 259.373,161.933 259.411,161.744 258.644 C 161.616 258.118,161.275 257.173,160.988 256.543 C 160.569 255.622,160.512 255.584,160.701 256.351 M283.646 259.196 C 283.503 259.962,283.471 260.676,283.576 260.781 C 283.681 260.886,283.885 260.344,284.028 259.578 C 284.172 258.811,284.204 258.098,284.099 257.993 C 283.994 257.888,283.790 258.429,283.646 259.196 M198.096 260.159 C 197.247 261.834,196.813 263.295,197.313 262.795 C 197.634 262.475,199.422 258.262,199.238 258.262 C 199.139 258.262,198.625 259.116,198.096 260.159 M202.855 262.866 C 201.815 264.904,200.514 268.263,200.694 268.444 C 200.777 268.526,201.487 267.058,202.274 265.183 L 203.704 261.772 207.514 263.096 C 209.609 263.824,211.545 264.367,211.814 264.302 C 212.084 264.237,210.347 263.556,207.955 262.789 L 203.605 261.395 202.855 262.866 M163.533 263.272 C 163.523 263.401,164.023 264.604,164.643 265.946 C 165.264 267.288,165.772 268.128,165.772 267.813 C 165.771 267.260,163.569 262.795,163.533 263.272 M195.830 265.518 C 195.250 266.774,194.840 267.996,194.919 268.232 C 194.997 268.469,195.526 267.494,196.092 266.066 C 197.384 262.811,197.229 262.487,195.830 265.518 M274.722 264.374 C 274.734 264.690,274.891 265.291,275.072 265.712 L 275.400 266.476 275.421 265.712 C 275.433 265.291,275.275 264.690,275.072 264.374 C 274.742 263.865,274.704 263.865,274.722 264.374 M213.563 264.739 C 213.878 264.952,214.465 265.129,214.868 265.133 C 215.845 265.140,215.540 264.922,214.136 264.608 C 213.299 264.420,213.144 264.456,213.563 264.739 M281.377 268.099 C 280.782 270.148,280.066 272.289,279.785 272.856 C 279.504 273.423,279.286 274.111,279.301 274.384 C 279.347 275.237,280.643 271.981,281.737 268.263 C 282.314 266.304,282.711 264.628,282.621 264.538 C 282.531 264.448,281.971 266.050,281.377 268.099 M265.455 265.167 C 265.104 265.364,263.815 265.767,262.590 266.064 C 261.232 266.393,260.763 266.615,261.389 266.635 C 261.953 266.652,262.812 266.520,263.299 266.341 C 265.513 265.524,266.284 265.484,266.315 266.182 C 266.332 266.557,266.429 266.652,266.533 266.395 C 266.866 265.572,266.163 264.771,265.455 265.167 M222.445 266.558 C 223.023 266.646,223.968 266.646,224.546 266.558 C 225.124 266.471,224.651 266.399,223.496 266.399 C 222.340 266.399,221.867 266.471,222.445 266.558 M236.581 266.558 C 237.159 266.646,238.104 266.646,238.682 266.558 C 239.260 266.471,238.787 266.399,237.631 266.399 C 236.476 266.399,236.003 266.471,236.581 266.558 M266.732 267.431 C 266.722 267.746,267.045 269.551,267.452 271.442 C 267.902 273.538,268.112 274.135,267.991 272.970 C 267.780 270.936,266.764 266.468,266.732 267.431 M275.924 269.723 C 275.924 270.458,276.003 270.759,276.099 270.392 C 276.195 270.024,276.195 269.422,276.099 269.054 C 276.003 268.687,275.924 268.988,275.924 269.723 M166.571 270.248 C 166.571 270.691,171.606 280.862,171.752 280.715 C 171.841 280.627,170.883 278.456,169.624 275.892 C 168.365 273.328,167.335 271.073,167.335 270.881 C 167.335 270.689,167.163 270.426,166.953 270.296 C 166.743 270.166,166.571 270.145,166.571 270.248 M198.854 272.779 C 198.710 273.231,198.679 273.687,198.784 273.792 C 198.889 273.897,199.092 273.613,199.236 273.161 C 199.379 272.709,199.411 272.254,199.306 272.149 C 199.201 272.044,198.997 272.327,198.854 272.779 M212.123 273.161 C 212.123 273.897,212.202 274.198,212.298 273.830 C 212.394 273.462,212.394 272.861,212.298 272.493 C 212.202 272.125,212.123 272.426,212.123 273.161 M232.392 273.444 C 233.608 273.520,235.499 273.519,236.595 273.443 C 237.690 273.366,236.695 273.303,234.384 273.304 C 232.073 273.305,231.176 273.368,232.392 273.444 M278.783 275.533 C 278.671 275.804,278.304 276.671,277.967 277.459 C 277.629 278.247,277.434 278.892,277.532 278.892 C 277.787 278.892,279.313 275.365,279.135 275.187 C 279.053 275.105,278.895 275.261,278.783 275.533 M191.066 278.548 C 190.832 279.220,190.657 280.045,190.678 280.382 C 190.698 280.718,190.954 280.232,191.246 279.301 C 191.858 277.353,191.705 276.714,191.066 278.548 M268.735 284.814 C 268.735 288.596,268.792 290.092,268.862 288.137 C 268.931 286.183,268.931 283.088,268.861 281.261 C 268.791 279.433,268.734 281.032,268.735 284.814 M276.261 280.229 C 276.245 281.743,276.250 281.748,276.791 280.802 C 277.423 279.697,277.515 279.135,277.014 279.445 C 276.822 279.564,276.578 279.445,276.472 279.181 C 276.365 278.917,276.271 279.389,276.261 280.229 M196.359 282.631 C 196.099 284.083,195.968 285.513,196.067 285.807 C 196.165 286.101,196.449 284.984,196.697 283.324 C 197.257 279.571,197.000 279.044,196.359 282.631 M172.894 283.133 C 173.437 284.204,173.971 284.991,174.080 284.882 C 174.279 284.683,172.374 281.184,172.068 281.184 C 171.979 281.184,172.351 282.061,172.894 283.133 M189.282 285.175 C 189.138 285.941,189.106 286.655,189.211 286.760 C 189.316 286.865,189.520 286.323,189.664 285.557 C 189.807 284.790,189.839 284.077,189.734 283.972 C 189.629 283.867,189.425 284.408,189.282 285.175 M175.121 287.202 C 175.979 288.890,184.809 294.402,185.518 293.692 C 185.610 293.601,183.683 292.511,181.237 291.271 C 177.288 289.268,176.664 288.813,175.660 287.202 C 175.037 286.203,174.454 285.387,174.364 285.387 C 174.273 285.387,174.614 286.203,175.121 287.202 M195.711 288.061 C 195.711 289.007,195.785 289.394,195.876 288.921 C 195.967 288.448,195.967 287.674,195.876 287.202 C 195.785 286.729,195.711 287.116,195.711 288.061 M220.408 287.436 C 220.917 288.062,222.350 289.010,222.350 288.719 C 222.350 288.647,221.791 288.178,221.108 287.678 C 220.340 287.115,220.073 287.023,220.408 287.436 M188.517 288.613 C 188.374 289.380,188.342 290.093,188.447 290.198 C 188.552 290.303,188.756 289.762,188.900 288.995 C 189.043 288.228,189.075 287.515,188.970 287.410 C 188.865 287.305,188.661 287.846,188.517 288.613 M195.300 294.045 L 195.224 298.309 198.336 299.498 C 200.047 300.151,201.520 300.613,201.609 300.524 C 201.698 300.435,200.426 299.844,198.784 299.211 L 195.798 298.059 195.587 293.920 L 195.375 289.780 195.300 294.045 M187.824 291.595 C 187.698 292.068,187.592 292.860,187.589 293.355 C 187.585 293.997,187.419 294.193,187.011 294.036 C 186.695 293.915,186.437 293.964,186.437 294.145 C 186.437 294.461,187.594 295.067,187.786 294.851 C 187.837 294.794,188.001 293.844,188.149 292.741 C 188.425 290.695,188.240 290.044,187.824 291.595 M267.420 295.224 C 267.399 296.512,257.195 307.905,256.049 307.921 C 255.778 307.924,255.219 307.197,254.807 306.304 C 253.981 304.514,254.204 305.737,255.089 307.857 L 255.646 309.189 258.909 305.980 C 264.741 300.242,269.173 294.556,267.813 294.556 C 267.603 294.556,267.426 294.857,267.420 295.224 M245.177 302.473 C 245.860 302.558,246.977 302.558,247.660 302.473 C 248.343 302.388,247.784 302.319,246.418 302.319 C 245.053 302.319,244.494 302.388,245.177 302.473 M253.307 302.961 C 253.307 303.276,253.473 303.792,253.677 304.107 C 254.006 304.616,254.048 304.616,254.048 304.107 C 254.048 303.792,253.881 303.276,253.677 302.961 C 253.348 302.451,253.307 302.451,253.307 302.961 M238.682 303.230 C 239.155 303.322,239.928 303.322,240.401 303.230 C 240.874 303.139,240.487 303.065,239.542 303.065 C 238.596 303.065,238.209 303.139,238.682 303.230 M234.288 303.617 C 234.866 303.704,235.812 303.704,236.390 303.617 C 236.968 303.529,236.495 303.457,235.339 303.457 C 234.183 303.457,233.711 303.529,234.288 303.617 M211.218 304.135 C 212.710 304.732,223.195 307.547,223.846 307.525 C 224.179 307.514,221.373 306.654,217.612 305.615 C 210.884 303.756,209.432 303.420,211.218 304.135 M229.351 304.601 C 228.158 305.569,226.502 306.720,225.260 307.444 C 224.814 307.704,224.684 307.919,224.971 307.922 C 225.256 307.925,226.651 307.083,228.071 306.051 C 229.490 305.018,231.061 304.096,231.562 304.001 C 232.430 303.837,232.425 303.826,231.452 303.777 C 230.891 303.748,229.945 304.119,229.351 304.601 " stroke="none" fill="#e59486" fill-rule="evenodd"></path><path id="path5" d="M182.617 42.847 C 180.831 43.033,178.596 43.335,177.650 43.518 L 175.931 43.850 177.844 43.892 C 181.999 43.985,194.293 45.780,197.726 46.795 C 198.136 46.916,198.042 46.811,197.517 46.562 C 187.870 41.987,188.752 42.207,182.617 42.847 M210.888 42.518 C 210.888 42.633,211.791 43.023,212.894 43.383 C 217.899 45.020,225.273 49.113,230.888 53.371 C 233.891 55.648,233.848 55.463,230.293 50.812 C 228.607 48.606,226.773 46.113,226.219 45.272 C 225.656 44.419,224.874 43.717,224.449 43.684 C 224.030 43.650,222.225 43.443,220.439 43.223 C 215.625 42.629,210.888 42.279,210.888 42.518 M239.641 49.797 C 251.801 61.013,259.442 72.107,262.706 83.286 C 263.340 85.457,263.609 85.966,263.815 85.387 C 268.366 72.633,271.013 70.487,273.257 77.729 C 276.174 87.139,272.691 101.381,265.627 108.933 C 264.341 110.308,263.941 110.986,264.202 111.347 C 270.916 120.611,279.274 135.084,279.274 137.445 C 279.274 137.711,279.440 138.227,279.643 138.592 C 285.752 149.583,286.635 173.379,281.516 189.030 C 281.057 190.433,280.851 191.703,281.020 192.086 C 281.272 192.657,281.886 194.674,283.082 198.854 C 286.716 211.557,288.825 225.548,288.825 236.946 L 288.825 241.765 290.544 243.403 C 292.568 245.332,292.589 245.514,291.686 253.677 C 288.514 282.361,278.741 306.798,260.638 331.310 L 257.940 334.963 254.758 336.181 C 244.137 340.247,230.604 341.066,219.866 338.292 C 197.247 332.449,158.312 305.635,140.000 283.287 L 138.583 281.558 137.352 272.871 C 136.674 268.093,135.908 262.455,135.648 260.342 L 135.177 256.501 131.853 256.660 C 128.335 256.828,126.876 256.501,122.759 254.618 C 121.628 254.100,120.450 253.677,120.141 253.677 C 119.833 253.677,119.580 253.537,119.580 253.366 C 119.580 253.195,118.935 252.751,118.147 252.380 C 109.838 248.466,94.365 233.314,94.365 229.091 C 94.365 228.770,94.185 228.396,93.964 228.260 C 93.708 228.101,93.695 227.852,93.926 227.569 C 94.126 227.325,94.365 226.180,94.458 225.024 C 94.551 223.868,94.994 221.633,95.442 220.057 C 95.890 218.481,96.261 217.075,96.266 216.933 C 96.271 216.791,94.642 214.821,92.645 212.557 C 77.004 194.817,65.449 166.598,68.217 152.897 C 71.172 138.266,76.599 122.910,83.686 109.127 L 86.409 103.833 84.151 105.711 C 77.357 111.365,75.072 109.709,78.064 101.298 C 79.306 97.809,78.990 98.040,74.558 103.867 C 31.791 160.093,31.051 237.788,72.748 293.792 C 76.725 299.133,76.675 295.789,73.170 322.046 C 70.028 345.590,70.033 345.478,72.094 349.265 C 74.361 353.430,78.460 355.830,83.286 355.819 C 85.845 355.814,85.874 355.805,121.952 344.321 L 129.865 341.803 133.987 343.733 C 176.479 363.625,228.184 362.735,270.830 341.376 C 276.632 338.470,286.843 332.450,288.097 331.196 C 288.462 330.831,288.830 330.600,288.913 330.683 C 288.996 330.766,291.299 329.158,294.030 327.109 C 349.662 285.374,371.670 214.811,349.587 148.985 C 332.521 98.115,288.883 58.444,236.391 46.079 C 235.593 45.891,236.372 46.781,239.641 49.797 " stroke="none" fill="#938eda" fill-rule="evenodd"></path><path id="path6" d="M193.987 39.239 C 194.462 39.330,195.150 39.327,195.515 39.231 C 195.881 39.135,195.492 39.061,194.651 39.065 C 193.811 39.069,193.512 39.147,193.987 39.239 M210.033 42.295 C 210.508 42.386,211.196 42.383,211.561 42.287 C 211.927 42.192,211.538 42.117,210.697 42.121 C 209.857 42.125,209.558 42.204,210.033 42.295 M183.859 42.670 C 184.226 42.766,184.828 42.766,185.196 42.670 C 185.564 42.574,185.263 42.496,184.527 42.496 C 183.792 42.496,183.491 42.574,183.859 42.670 M214.804 42.670 C 215.172 42.766,215.774 42.766,216.141 42.670 C 216.509 42.574,216.208 42.496,215.473 42.496 C 214.737 42.496,214.436 42.574,214.804 42.670 M241.261 47.373 C 241.681 47.554,242.283 47.702,242.598 47.702 C 242.959 47.702,242.888 47.580,242.407 47.373 C 241.987 47.193,241.385 47.045,241.070 47.045 C 240.709 47.045,240.779 47.166,241.261 47.373 M244.508 48.329 C 245.244 48.612,246.103 48.843,246.418 48.843 C 246.734 48.843,246.390 48.612,245.654 48.329 C 244.919 48.045,244.059 47.814,243.744 47.814 C 243.429 47.814,243.773 48.045,244.508 48.329 M261.700 54.441 C 262.225 54.742,262.827 54.987,263.037 54.987 C 263.247 54.987,262.989 54.742,262.464 54.441 C 261.939 54.141,261.337 53.895,261.127 53.895 C 260.917 53.895,261.175 54.141,261.700 54.441 M265.521 56.160 C 266.256 56.563,267.030 56.893,267.240 56.893 C 267.450 56.893,267.020 56.563,266.285 56.160 C 265.549 55.758,264.776 55.428,264.565 55.428 C 264.355 55.428,264.785 55.758,265.521 56.160 M274.690 60.534 C 274.690 60.639,275.205 60.992,275.836 61.318 C 276.466 61.644,276.982 61.825,276.982 61.720 C 276.982 61.615,276.466 61.262,275.836 60.936 C 275.205 60.610,274.690 60.429,274.690 60.534 M280.229 63.697 C 280.439 63.897,281.299 64.447,282.139 64.919 C 282.980 65.391,283.324 65.492,282.904 65.142 C 282.050 64.433,279.630 63.124,280.229 63.697 M291.882 71.182 C 291.882 71.274,292.870 72.092,294.078 72.999 C 295.287 73.906,296.068 74.391,295.815 74.077 C 295.296 73.434,291.882 70.921,291.882 71.182 M306.781 83.477 C 307.923 84.632,308.942 85.578,309.047 85.578 C 309.153 85.578,308.305 84.632,307.163 83.477 C 306.022 82.321,305.002 81.375,304.897 81.375 C 304.792 81.375,305.640 82.321,306.781 83.477 M311.557 87.870 C 312.804 89.131,313.911 90.162,314.016 90.162 C 314.121 90.162,313.186 89.131,311.939 87.870 C 310.691 86.609,309.585 85.578,309.480 85.578 C 309.374 85.578,310.309 86.609,311.557 87.870 M316.504 93.219 C 320.326 97.364,321.340 98.332,319.108 95.702 C 318.038 94.441,316.420 92.722,315.512 91.882 C 314.605 91.041,315.051 91.643,316.504 93.219 M326.481 105.158 C 327.674 106.786,328.726 108.118,328.819 108.118 C 329.057 108.118,326.770 104.974,325.433 103.463 C 324.816 102.767,325.288 103.529,326.481 105.158 M72.932 105.540 C 71.005 108.044,70.954 108.118,71.159 108.118 C 71.264 108.118,72.064 107.173,72.937 106.017 C 73.809 104.862,74.446 103.916,74.352 103.916 C 74.258 103.916,73.619 104.647,72.932 105.540 M332.711 114.040 C 332.918 114.460,333.366 115.148,333.708 115.568 L 334.331 116.332 333.955 115.568 C 333.749 115.148,333.300 114.460,332.958 114.040 L 332.336 113.276 332.711 114.040 M334.621 117.096 C 334.828 117.517,335.277 118.204,335.619 118.625 L 336.241 119.389 335.866 118.625 C 335.659 118.204,335.211 117.517,334.868 117.096 L 334.246 116.332 334.621 117.096 M63.714 119.293 C 62.878 120.582,62.128 122.116,62.547 121.681 C 63.083 121.124,64.659 118.434,64.450 118.434 C 64.351 118.434,64.020 118.820,63.714 119.293 M336.772 120.726 C 337.098 121.356,337.450 121.872,337.555 121.872 C 337.661 121.872,337.480 121.356,337.154 120.726 C 336.828 120.096,336.475 119.580,336.370 119.580 C 336.265 119.580,336.446 120.096,336.772 120.726 M60.936 124.164 C 60.610 124.795,60.429 125.310,60.534 125.310 C 60.639 125.310,60.992 124.795,61.318 124.164 C 61.644 123.534,61.825 123.018,61.720 123.018 C 61.615 123.018,61.262 123.534,60.936 124.164 M338.682 124.164 C 339.008 124.795,339.361 125.310,339.466 125.310 C 339.571 125.310,339.390 124.795,339.064 124.164 C 338.738 123.534,338.385 123.018,338.280 123.018 C 338.175 123.018,338.356 123.534,338.682 124.164 M55.656 134.688 C 54.758 136.570,54.885 136.891,55.823 135.112 C 56.249 134.304,56.530 133.576,56.448 133.493 C 56.365 133.411,56.009 133.948,55.656 134.688 M343.867 134.288 C 343.867 134.499,344.112 135.100,344.413 135.626 C 344.713 136.151,344.959 136.409,344.959 136.199 C 344.959 135.989,344.713 135.387,344.413 134.862 C 344.112 134.336,343.867 134.078,343.867 134.288 M54.312 137.743 C 53.672 139.148,53.794 139.448,54.486 138.171 C 54.810 137.574,55.003 137.015,54.915 136.927 C 54.828 136.840,54.557 137.207,54.312 137.743 M48.356 154.182 C 48.215 154.742,48.174 155.274,48.264 155.364 C 48.354 155.454,48.543 155.069,48.683 154.509 C 48.824 153.950,48.865 153.418,48.775 153.328 C 48.685 153.238,48.496 153.622,48.356 154.182 M351.513 154.537 C 351.501 154.747,351.828 155.950,352.240 157.211 C 352.652 158.472,352.886 158.908,352.760 158.180 C 352.508 156.730,351.547 153.924,351.513 154.537 M47.210 158.002 C 47.069 158.562,47.028 159.094,47.118 159.184 C 47.208 159.274,47.397 158.890,47.537 158.330 C 47.678 157.770,47.719 157.238,47.629 157.148 C 47.539 157.058,47.350 157.443,47.210 158.002 M42.129 189.112 C 42.129 190.057,42.203 190.444,42.294 189.971 C 42.386 189.499,42.386 188.725,42.294 188.252 C 42.203 187.779,42.129 188.166,42.129 189.112 M357.689 188.921 C 357.694 189.761,357.772 190.060,357.863 189.585 C 357.955 189.110,357.951 188.422,357.856 188.057 C 357.760 187.691,357.685 188.080,357.689 188.921 M252.318 190.425 C 251.584 190.968,251.584 190.972,252.319 190.869 C 252.728 190.811,253.129 190.564,253.211 190.320 C 253.405 189.738,253.216 189.760,252.318 190.425 M187.680 194.269 C 187.684 195.110,187.762 195.409,187.854 194.933 C 187.945 194.458,187.942 193.771,187.846 193.405 C 187.750 193.040,187.676 193.429,187.680 194.269 M358.131 200.000 C 358.131 203.572,358.188 205.085,358.259 203.362 C 358.330 201.638,358.330 198.716,358.260 196.867 C 358.190 195.018,358.132 196.428,358.131 200.000 M41.795 199.809 C 41.795 202.856,41.854 204.102,41.926 202.579 C 41.999 201.055,41.999 198.563,41.926 197.039 C 41.854 195.516,41.795 196.762,41.795 199.809 M267.922 196.180 C 267.925 197.230,267.999 197.615,268.087 197.034 C 268.175 196.453,268.172 195.594,268.082 195.124 C 267.991 194.654,267.919 195.129,267.922 196.180 M207.429 202.388 L 206.113 203.820 207.545 202.504 C 208.879 201.278,209.154 200.955,208.862 200.955 C 208.798 200.955,208.153 201.600,207.429 202.388 M264.736 203.916 L 263.419 205.349 264.852 204.032 C 266.185 202.807,266.460 202.483,266.169 202.483 C 266.105 202.483,265.460 203.128,264.736 203.916 M42.129 210.888 C 42.129 211.834,42.203 212.221,42.294 211.748 C 42.386 211.275,42.386 210.501,42.294 210.029 C 42.203 209.556,42.129 209.943,42.129 210.888 M357.697 211.270 C 357.697 212.216,357.772 212.603,357.863 212.130 C 357.954 211.657,357.954 210.883,357.863 210.411 C 357.772 209.938,357.697 210.325,357.697 211.270 M47.045 241.070 C 47.045 241.385,47.193 241.987,47.373 242.407 C 47.580 242.888,47.702 242.959,47.702 242.598 C 47.702 242.283,47.554 241.681,47.373 241.261 C 47.166 240.779,47.045 240.709,47.045 241.070 M352.081 243.198 C 351.940 243.758,351.899 244.290,351.989 244.380 C 352.079 244.470,352.268 244.086,352.408 243.526 C 352.549 242.966,352.590 242.434,352.500 242.344 C 352.410 242.254,352.221 242.638,352.081 243.198 M47.814 243.744 C 47.814 244.059,48.045 244.919,48.329 245.654 C 48.612 246.390,48.843 246.734,48.843 246.418 C 48.843 246.103,48.612 245.244,48.329 244.508 C 48.045 243.773,47.814 243.429,47.814 243.744 M53.895 261.127 C 53.895 261.337,54.141 261.939,54.441 262.464 C 54.742 262.989,54.987 263.247,54.987 263.037 C 54.987 262.827,54.742 262.225,54.441 261.700 C 54.141 261.175,53.895 260.917,53.895 261.127 M344.481 264.201 C 343.584 266.083,343.710 266.403,344.648 264.625 C 345.074 263.817,345.355 263.089,345.273 263.006 C 345.190 262.923,344.834 263.461,344.481 264.201 M55.041 263.801 C 55.041 264.011,55.287 264.613,55.587 265.138 C 55.888 265.664,56.133 265.922,56.133 265.712 C 56.133 265.501,55.888 264.900,55.587 264.374 C 55.287 263.849,55.041 263.591,55.041 263.801 M342.959 267.627 C 342.610 268.359,342.402 268.959,342.499 268.959 C 342.760 268.959,343.920 266.620,343.745 266.445 C 343.662 266.362,343.309 266.894,342.959 267.627 M61.318 276.600 C 61.644 277.230,61.997 277.746,62.102 277.746 C 62.207 277.746,62.026 277.230,61.700 276.600 C 61.374 275.969,61.021 275.454,60.916 275.454 C 60.811 275.454,60.992 275.969,61.318 276.600 M64.134 281.375 C 64.341 281.796,64.789 282.483,65.132 282.904 L 65.754 283.668 65.379 282.904 C 65.172 282.483,64.723 281.796,64.381 281.375 L 63.759 280.611 64.134 281.375 M334.434 283.190 C 333.119 285.421,333.033 285.612,333.703 284.814 C 334.479 283.889,335.148 282.713,334.897 282.713 C 334.797 282.713,334.589 282.927,334.434 283.190 M66.045 284.432 C 66.251 284.852,66.700 285.540,67.042 285.960 L 67.664 286.724 67.289 285.960 C 67.082 285.540,66.634 284.852,66.292 284.432 L 65.669 283.668 66.045 284.432 M71.076 292.037 C 71.794 293.037,72.546 293.957,72.747 294.081 C 72.949 294.206,72.527 293.490,71.809 292.490 C 71.091 291.490,70.339 290.571,70.137 290.446 C 69.935 290.321,70.358 291.037,71.076 292.037 M328.940 291.500 C 328.491 292.130,328.210 292.646,328.315 292.646 C 328.420 292.646,328.873 292.130,329.322 291.500 C 329.771 290.869,330.052 290.353,329.947 290.353 C 329.842 290.353,329.389 290.869,328.940 291.500 M326.815 294.430 C 326.226 295.202,325.940 295.712,326.178 295.565 C 326.668 295.263,328.321 293.028,328.056 293.028 C 327.962 293.028,327.403 293.659,326.815 294.430 M324.355 297.612 C 323.690 298.453,323.231 299.140,323.336 299.140 C 323.441 299.140,324.072 298.453,324.737 297.612 C 325.403 296.772,325.862 296.084,325.757 296.084 C 325.652 296.084,325.021 296.772,324.355 297.612 M320.892 301.910 C 319.972 303.013,319.521 303.675,319.891 303.380 C 320.634 302.787,322.987 299.904,322.728 299.904 C 322.638 299.904,321.812 300.807,320.892 301.910 M317.083 306.304 L 314.995 308.500 317.192 306.412 C 319.233 304.472,319.564 304.107,319.280 304.107 C 319.220 304.107,318.232 305.096,317.083 306.304 M311.930 311.843 L 308.883 314.995 312.034 311.948 C 314.962 309.118,315.360 308.691,315.082 308.691 C 315.024 308.691,313.606 310.110,311.930 311.843 M73.926 313.658 C 73.776 314.945,73.735 316.078,73.834 316.178 C 73.934 316.277,74.134 315.303,74.280 314.013 C 74.426 312.723,74.467 311.589,74.371 311.493 C 74.275 311.397,74.075 312.372,73.926 313.658 M306.196 317.192 L 303.916 319.580 306.304 317.299 C 307.617 316.045,308.691 314.971,308.691 314.912 C 308.691 314.629,308.314 314.974,306.196 317.192 M73.449 318.052 C 73.453 318.892,73.531 319.191,73.623 318.716 C 73.714 318.240,73.711 317.553,73.615 317.188 C 73.519 316.822,73.445 317.211,73.449 318.052 M73.059 320.917 C 73.059 321.652,73.138 321.953,73.234 321.585 C 73.330 321.218,73.330 320.616,73.234 320.248 C 73.138 319.881,73.059 320.181,73.059 320.917 M72.685 323.782 C 72.689 324.623,72.767 324.922,72.859 324.446 C 72.950 323.971,72.946 323.283,72.851 322.918 C 72.755 322.553,72.680 322.942,72.685 323.782 M72.295 326.648 C 72.295 327.383,72.374 327.684,72.470 327.316 C 72.566 326.948,72.566 326.347,72.470 325.979 C 72.374 325.611,72.295 325.912,72.295 326.648 M294.174 327.076 C 292.842 328.243,292.842 328.245,294.067 327.430 C 294.743 326.980,295.398 326.448,295.522 326.248 C 295.891 325.651,295.585 325.839,294.174 327.076 M71.921 329.513 C 71.925 330.353,72.003 330.652,72.094 330.177 C 72.186 329.702,72.182 329.014,72.087 328.649 C 71.991 328.284,71.916 328.672,71.921 329.513 M71.531 332.378 C 71.531 333.114,71.609 333.415,71.706 333.047 C 71.802 332.679,71.802 332.077,71.706 331.710 C 71.609 331.342,71.531 331.643,71.531 332.378 M284.750 333.453 C 282.619 334.826,282.133 335.411,284.050 334.296 C 285.461 333.475,286.934 332.345,286.519 332.403 C 286.422 332.416,285.625 332.889,284.750 333.453 M70.385 341.165 C 70.385 341.901,70.463 342.202,70.559 341.834 C 70.656 341.466,70.656 340.864,70.559 340.497 C 70.463 340.129,70.385 340.430,70.385 341.165 M269.341 342.120 C 267.975 342.835,266.992 343.429,267.155 343.439 C 267.561 343.464,272.015 341.200,272.015 340.969 C 272.015 340.712,272.105 340.673,269.341 342.120 M127.030 342.693 C 124.613 343.585,125.159 343.665,127.857 342.814 C 129.770 342.211,129.982 342.211,131.246 342.814 C 133.074 343.686,133.464 343.601,131.805 342.693 C 130.163 341.794,129.466 341.794,127.030 342.693 M71.065 347.872 C 71.057 348.547,73.176 351.613,74.349 352.623 C 75.383 353.514,75.376 353.490,74.238 352.241 C 73.570 351.507,72.583 350.134,72.046 349.188 C 71.509 348.243,71.067 347.650,71.065 347.872 M151.098 350.716 C 152.149 351.104,153.266 351.421,153.582 351.421 C 153.897 351.421,153.295 351.104,152.245 350.716 C 151.194 350.329,150.076 350.011,149.761 350.011 C 149.446 350.011,150.048 350.329,151.098 350.716 M246.036 351.289 C 245.301 351.573,244.957 351.804,245.272 351.804 C 245.587 351.804,246.447 351.573,247.182 351.289 C 247.918 351.006,248.262 350.774,247.947 350.774 C 247.631 350.774,246.772 351.006,246.036 351.289 M98.567 351.671 C 97.832 351.955,97.488 352.186,97.803 352.186 C 98.118 352.186,98.978 351.955,99.713 351.671 C 100.449 351.388,100.793 351.157,100.478 351.157 C 100.162 351.157,99.303 351.388,98.567 351.671 M156.065 352.245 C 156.485 352.425,157.087 352.573,157.402 352.573 C 157.763 352.573,157.693 352.451,157.211 352.245 C 156.791 352.064,156.189 351.916,155.874 351.916 C 155.513 351.916,155.583 352.038,156.065 352.245 M242.789 352.245 C 242.307 352.451,242.237 352.573,242.598 352.573 C 242.913 352.573,243.515 352.425,243.935 352.245 C 244.417 352.038,244.487 351.916,244.126 351.916 C 243.811 351.916,243.209 352.064,242.789 352.245 M215.568 357.474 C 215.936 357.571,216.538 357.571,216.905 357.474 C 217.273 357.378,216.972 357.300,216.237 357.300 C 215.501 357.300,215.201 357.378,215.568 357.474 M187.302 357.867 C 187.883 357.955,188.743 357.953,189.213 357.862 C 189.682 357.771,189.207 357.700,188.157 357.702 C 187.106 357.705,186.722 357.779,187.302 357.867 M210.989 357.867 C 211.570 357.955,212.429 357.953,212.899 357.862 C 213.369 357.771,212.894 357.700,211.843 357.702 C 210.793 357.705,210.408 357.779,210.989 357.867 M196.295 358.260 C 198.460 358.329,201.899 358.328,203.936 358.260 C 205.974 358.191,204.202 358.135,200.000 358.136 C 195.798 358.136,194.130 358.192,196.295 358.260 " stroke="none" fill="#cbcdf4" fill-rule="evenodd"></path><path id="path7" d="M169.353 44.216 C 170.357 44.295,171.904 44.294,172.791 44.214 C 173.678 44.134,172.856 44.069,170.965 44.071 C 169.074 44.072,168.348 44.137,169.353 44.216 M203.879 183.668 C 203.782 183.825,204.503 183.903,205.481 183.840 C 208.271 183.661,208.609 183.474,206.231 183.425 C 205.035 183.401,203.977 183.510,203.879 183.668 M264.475 185.565 C 265.056 185.653,265.915 185.651,266.385 185.560 C 266.855 185.470,266.380 185.398,265.330 185.401 C 264.279 185.403,263.894 185.478,264.475 185.565 " stroke="none" fill="#748c94" fill-rule="evenodd"></path><path id="path8" d="M217.472 189.494 C 217.472 190.229,217.550 190.530,217.646 190.162 C 217.742 189.795,217.742 189.193,217.646 188.825 C 217.550 188.457,217.472 188.758,217.472 189.494 M217.896 193.887 C 217.897 195.568,217.965 196.208,218.045 195.310 C 218.126 194.411,218.125 193.036,218.043 192.254 C 217.961 191.471,217.895 192.206,217.896 193.887 M272.130 194.078 C 272.130 195.234,272.201 195.707,272.289 195.129 C 272.376 194.551,272.376 193.606,272.289 193.028 C 272.201 192.450,272.130 192.923,272.130 194.078 M185.006 194.651 C 185.010 195.492,185.088 195.791,185.179 195.316 C 185.271 194.840,185.267 194.153,185.172 193.787 C 185.076 193.422,185.001 193.811,185.006 194.651 M216.342 201.346 C 215.900 202.392,215.619 203.247,215.718 203.247 C 215.976 203.247,217.476 199.775,217.296 199.595 C 217.213 199.512,216.784 200.300,216.342 201.346 M186.812 201.242 C 187.105 201.846,187.537 202.086,188.266 202.049 C 189.278 201.998,189.280 201.993,188.363 201.821 C 187.846 201.724,187.191 201.361,186.909 201.013 C 186.462 200.465,186.450 200.494,186.812 201.242 M213.542 205.765 C 212.818 206.519,211.409 207.553,210.411 208.063 C 209.413 208.574,208.596 209.077,208.596 209.182 C 208.596 209.715,212.422 207.313,213.736 205.955 C 214.566 205.096,215.159 204.394,215.052 204.394 C 214.946 204.394,214.266 205.011,213.542 205.765 M251.291 272.588 C 251.392 273.114,251.540 273.543,251.620 273.543 C 251.701 273.543,251.767 273.114,251.767 272.588 C 251.767 272.063,251.619 271.633,251.438 271.633 C 251.257 271.633,251.191 272.063,251.291 272.588 M236.586 291.010 C 237.167 291.097,238.026 291.095,238.496 291.004 C 238.966 290.914,238.491 290.842,237.440 290.845 C 236.390 290.848,236.005 290.922,236.586 291.010 " stroke="none" fill="#fcc1ae" fill-rule="evenodd"></path></g></svg>